<?xml version="1.0" encoding="utf-8"?>
<!-- Generator: Adobe Illustrator 27.6.1, SVG Export Plug-In . SVG Version: 6.00 Build 0)  -->
<svg version="1.1" id="Layer_1" xmlns="http://www.w3.org/2000/svg" xmlns:xlink="http://www.w3.org/1999/xlink" x="0px" y="0px"
	 width="158.075px" height="30px" viewBox="0 0 158.075 30" style="enable-background:new 0 0 158.075 30;" xml:space="preserve">
<style type="text/css">
	.st0{fill:#0F1D2B;}
	.st1{fill:#FFD756;}
	.st2{fill:#0E1B29;}
	.st3{fill:#00AE74;}
</style>
<g>
	<g>
		<path class="st0" d="M36.21,12.85c-0.101,1.398-0.498,2.758-1.164,3.991c-0.496,1.061-1.268,1.97-2.237,2.628
			c-0.888,0.594-1.953,0.869-3.018,0.778c-1.173-0.012-2.28-0.547-3.018-1.46l-1.265,6.715h-4.386l3.509-19.761h3.987l-0.195,1.363
			c0.787-1.075,2.076-1.664,3.403-1.555c1.241-0.037,2.43,0.502,3.22,1.46c0.849,1.155,1.294,2.558,1.265,3.991
			C36.371,11.619,36.337,12.242,36.21,12.85z M32.025,10.996c0-1.46-0.584-2.239-1.461-2.239c-0.929-0.046-1.815,0.397-2.334,1.169
			l-0.974,5.645c0.256,0.785,1.035,1.276,1.853,1.169c1.558,0,2.531-1.266,2.822-3.991c0.07-0.579,0.101-1.161,0.094-1.744
			L32.025,10.996z"/>
		<path class="st0" d="M45.067,5.453c1.177-0.023,2.332,0.316,3.31,0.972c0.934,0.603,1.649,1.49,2.04,2.531
			c0.446,1.143,0.613,2.377,0.486,3.598v0.292c-0.215,1.971-1.07,3.817-2.433,5.257c-1.363,1.355-3.24,2.063-5.159,1.946
			c-2.339,0.06-4.47-1.336-5.349-3.504c-0.446-1.143-0.613-2.377-0.486-3.598c0.124-2.08,0.987-4.048,2.433-5.549
			C41.272,6.044,43.149,5.336,45.067,5.453z M41.857,12.948v0.778c-0.099,1.945,0.485,2.917,1.751,2.917
			c1.752,0.098,2.725-1.265,3.018-4.088l0.097-1.168c0.085-0.658-0.09-1.322-0.487-1.853c-0.297-0.47-0.807-0.762-1.363-0.779
			c-0.777-0.05-1.52,0.322-1.946,0.974C42.241,10.663,41.867,11.789,41.857,12.948z"/>
		<path class="st0" d="M59.376,15.673c0.097-0.584-0.292-0.974-1.363-1.266l-0.872-0.195c-1.215-0.291-2.347-0.857-3.309-1.655
			c-0.695-0.649-1.054-1.582-0.974-2.53c0.008-1.348,0.708-2.598,1.853-3.31c1.263-0.854,2.759-1.295,4.283-1.265
			c1.433-0.029,2.836,0.415,3.991,1.265c0.985,0.817,1.555,2.03,1.557,3.31h-4.291c0-1.071-0.487-1.655-1.461-1.655
			c-0.424-0.021-0.841,0.118-1.168,0.389c-0.36,0.208-0.609,0.564-0.681,0.974c-0.097,0.681,0.486,1.169,1.853,1.46
			c0.973,0.222,1.92,0.549,2.824,0.974c0.615,0.293,1.125,0.769,1.46,1.363c0.364,0.617,0.534,1.329,0.486,2.044
			c0.024,0.834-0.291,1.641-0.872,2.239c-0.618,0.71-1.385,1.275-2.247,1.655c-1.028,0.382-2.115,0.579-3.212,0.583
			c-0.984,0.018-1.956-0.217-2.824-0.681c-0.801-0.384-1.501-0.95-2.044-1.654c-0.502-0.713-0.774-1.562-0.778-2.434h3.895
			c-0.097,0.509,0.089,1.03,0.486,1.363c0.367,0.344,0.861,0.52,1.363,0.487c0.484,0.022,0.963-0.115,1.363-0.389
			C59.09,16.526,59.346,16.123,59.376,15.673z"/>
		<path class="st0" d="M69.791,20.052h-4.278l2.433-14.21h4.279L69.791,20.052z M68.33,2.24c-0.025-0.596,0.226-1.171,0.681-1.557
			c0.463-0.461,1.098-0.708,1.752-0.681c0.632,0,1.247,0.204,1.753,0.583c0.86,0.795,0.913,2.136,0.118,2.996c0,0,0,0-0.001,0.001
			c-0.039,0.041-0.078,0.081-0.118,0.118c-0.488,0.422-1.108,0.663-1.753,0.681c-0.602,0-1.185-0.206-1.654-0.583
			C68.629,3.422,68.343,2.85,68.33,2.24z"/>
		<path class="st0" d="M80.205,2.144l-0.584,3.501h2.142l-0.487,3.018h-2.238l-1.071,6.521c-0.065,0.327-0.032,0.666,0.097,0.974
			c0.198,0.279,0.532,0.429,0.872,0.389c0.36,0.021,0.721-0.012,1.072-0.097l-0.292,3.212c-0.721,0.24-1.481,0.339-2.239,0.292
			c-1.096,0.056-2.161-0.371-2.915-1.169c-0.683-0.884-0.966-2.013-0.779-3.115l1.071-6.912h-1.652l0.488-3.016h1.655l0.584-3.598
			H80.205z"/>
		<path class="st0" d="M86.045,20.052h-4.282l2.433-14.21h4.282L86.045,20.052z M84.591,2.24c-0.025-0.596,0.226-1.171,0.681-1.557
			c0.435-0.444,1.033-0.69,1.655-0.681c0.605-0.016,1.194,0.192,1.655,0.583c0.86,0.795,0.913,2.136,0.118,2.996c0,0,0,0,0,0.001
			c-0.039,0.041-0.078,0.081-0.118,0.118c-0.461,0.405-1.043,0.644-1.655,0.681c-0.602,0-1.186-0.206-1.655-0.583
			C84.855,3.385,84.611,2.827,84.591,2.24z"/>
		<polygon class="st0" points="95.098,14.212 98.7,5.453 103.469,5.453 96.656,19.469 92.179,19.469 89.939,5.453 94.417,5.453 		
			"/>
		<path class="st0" d="M109.699,19.955c-1.191-0.001-2.362-0.301-3.407-0.872c-0.961-0.586-1.737-1.432-2.239-2.44
			c-0.483-1.067-0.684-2.24-0.584-3.407V12.85c0.107-2.056,0.975-3.999,2.434-5.451c1.334-1.337,3.174-2.045,5.061-1.946
			c1.1-0.011,2.181,0.291,3.116,0.872c0.878,0.575,1.533,1.434,1.853,2.433c0.417,1.118,0.55,2.322,0.389,3.505l-0.292,1.752h-8.379
			c-0.016,0.634,0.19,1.254,0.583,1.752c0.438,0.5,1.092,0.754,1.753,0.681c1.307,0.053,2.577-0.44,3.504-1.363l1.853,2.336
			c-0.583,0.766-1.354,1.37-2.238,1.752c-0.986,0.421-2.043,0.652-3.115,0.681L109.699,19.955z M110.769,8.761
			c-0.576-0.016-1.134,0.194-1.558,0.584c-0.548,0.54-0.949,1.21-1.168,1.947h4.282l0.098-0.389v-0.872
			C112.204,9.296,111.537,8.784,110.769,8.761z"/>
		<path class="st1" d="M126.634,15.089c0.196-0.876-0.291-1.558-1.46-2.044l-1.947-0.778c-2.725-1.266-4.088-2.921-3.893-5.062
			c0.027-0.959,0.369-1.883,0.974-2.628c0.693-0.776,1.56-1.376,2.53-1.752c1.111-0.46,2.304-0.691,3.506-0.68
			c1.543-0.034,3.04,0.523,4.185,1.557c1.079,0.997,1.651,2.428,1.556,3.894h-4.088c0.07-0.58-0.068-1.167-0.389-1.655
			c-0.387-0.398-0.906-0.64-1.46-0.681c-0.654-0.037-1.302,0.133-1.853,0.486c-0.507,0.291-0.862,0.789-0.974,1.363
			c-0.195,0.779,0.486,1.461,1.752,1.947c0.974,0.389,1.947,0.778,2.919,1.266c1.754,0.82,2.805,2.651,2.628,4.579
			c-0.071,0.95-0.407,1.86-0.969,2.628c-0.658,0.77-1.493,1.369-2.433,1.744c-1.969,0.751-4.14,0.786-6.132,0.097
			c-0.742-0.271-1.433-0.666-2.044-1.168c-1.172-1.103-1.78-2.679-1.655-4.283h4.088c-0.084,0.717,0.089,1.441,0.487,2.044
			c0.514,0.507,1.228,0.757,1.946,0.681c0.622,0.036,1.238-0.135,1.753-0.486C126.182,16.047,126.574,15.617,126.634,15.089z"/>
		<path class="st1" d="M141.235,15.089c0.195-0.876-0.292-1.558-1.46-2.044l-1.947-0.778c-2.725-1.266-4.088-2.921-3.893-5.062
			c0.027-0.959,0.369-1.883,0.974-2.628c0.693-0.776,1.56-1.376,2.53-1.752c1.111-0.459,2.302-0.691,3.504-0.68
			c1.524-0.023,3.007,0.494,4.186,1.46c1.08,0.996,1.653,2.428,1.557,3.894h-4.088c0.034-0.547-0.102-1.091-0.389-1.558
			c-0.413-0.418-0.97-0.661-1.557-0.681c-0.654-0.037-1.302,0.133-1.853,0.486c-0.506,0.292-0.861,0.789-0.974,1.363
			c-0.194,0.779,0.487,1.461,1.752,1.947c0.974,0.389,1.947,0.778,2.921,1.266c1.27,0.652,2.193,1.824,2.53,3.212
			c0.311,1.394-0.008,2.854-0.872,3.991c-0.657,0.772-1.492,1.374-2.433,1.752c-1.125,0.399-2.311,0.597-3.505,0.584
			c-0.896-0.02-1.784-0.184-2.627-0.487c-0.743-0.27-1.434-0.665-2.044-1.168c-1.172-1.103-1.781-2.678-1.655-4.283h4.088
			c-0.084,0.717,0.088,1.441,0.486,2.044c0.514,0.507,1.229,0.757,1.947,0.681c0.622,0.036,1.238-0.135,1.752-0.486
			C140.724,16.09,141.165,15.649,141.235,15.089z"/>
		<polygon class="st1" points="151.164,16.841 158.075,16.841 157.49,20.053 146.687,20.053 149.606,2.727 153.597,2.727 		"/>
		<polygon class="st1" points="10.611,12.46 10.611,7.691 7.691,7.691 7.691,12.46 3.019,12.46 3.019,15.381 7.691,15.381 
			7.691,20.15 10.611,20.15 10.611,15.381 15.38,15.381 15.38,12.46 		"/>
		<path class="st1" d="M9.152,4.771C4.099,4.77,0.001,8.866,0,13.919c-0.001,5.053,4.094,9.151,9.148,9.152
			c5.053,0.001,9.151-4.094,9.152-9.148c0-0.002,0-0.004,0-0.005l0,0c0.073-4.978-3.903-9.072-8.88-9.146H9.152z M9.152,22.094
			c-4.488-0.08-8.062-3.784-7.982-8.272C1.25,9.334,4.954,5.76,9.442,5.84c4.413,0.079,7.956,3.664,7.983,8.078
			c0.004,2.167-0.876,4.241-2.438,5.743C13.448,21.222,11.345,22.099,9.152,22.094z"/>
	</g>
	<g>
		<path class="st2" d="M89.004,29.995h-0.722c-0.08,0.013-0.155-0.041-0.168-0.12c0-0.001,0-0.003-0.001-0.004
			c-0.004-0.019-0.004-0.039,0-0.059l0.358-5.113c-0.005-0.094,0.067-0.175,0.162-0.18c0,0,0,0,0,0h2.108
			c0.369-0.024,0.731,0.107,0.998,0.363c0.24,0.284,0.347,0.657,0.294,1.025l-0.057,0.818c-0.005,0.386-0.162,0.755-0.438,1.025
			c-0.292,0.252-0.67,0.382-1.055,0.363H89.41c-0.067,0-0.104,0.03-0.109,0.092l-0.112,1.609c0.006,0.094-0.066,0.174-0.159,0.18
			c0,0,0,0-0.001,0L89.004,29.995z M89.474,27.169h0.903c0.14,0.012,0.28-0.028,0.392-0.115c0.09-0.104,0.138-0.237,0.137-0.374
			l0.05-0.715c0.024-0.135-0.006-0.274-0.084-0.388c-0.104-0.088-0.239-0.129-0.374-0.115h-0.903
			c-0.048-0.007-0.093,0.027-0.1,0.076c0,0,0,0,0,0c-0.001,0.006-0.001,0.012,0,0.017l-0.106,1.524
			c-0.008,0.041,0.019,0.081,0.06,0.09C89.457,27.171,89.466,27.17,89.474,27.169z"/>
		<path class="st2" d="M94.605,29.995h-0.953c-0.373,0.027-0.741-0.102-1.014-0.358c-0.242-0.285-0.349-0.66-0.294-1.03l0.188-2.698
			c0.005-0.388,0.162-0.758,0.438-1.03c0.296-0.25,0.677-0.378,1.064-0.358h0.953c0.373-0.027,0.741,0.102,1.014,0.358
			c0.242,0.285,0.349,0.66,0.294,1.03l-0.188,2.698c-0.005,0.388-0.162,0.758-0.438,1.03C95.373,29.888,94.992,30.016,94.605,29.995
			z M93.887,29.058h0.605c0.247,0.046,0.485-0.116,0.531-0.363c0.008-0.045,0.01-0.09,0.005-0.135l0.182-2.597
			c0.064-0.208-0.053-0.429-0.261-0.492c0,0,0,0-0.001,0c-0.066-0.02-0.137-0.022-0.205-0.007H94.14
			c-0.14-0.014-0.281,0.027-0.392,0.115c-0.091,0.108-0.14,0.246-0.137,0.388l-0.181,2.597c-0.025,0.135,0.005,0.274,0.082,0.387
			C93.617,29.035,93.752,29.075,93.887,29.058z"/>
		<path class="st2" d="M98.639,29.995h-1.191c-0.095,0.014-0.184-0.052-0.198-0.147c0,0,0-0.001,0-0.001
			c-0.001-0.01-0.001-0.021,0-0.031l-0.552-5.113c-0.009-0.118,0.055-0.178,0.191-0.178h0.885c0.125,0,0.193,0.06,0.191,0.178
			l0.2,4.197h0.06l1.112-4.222c0.012-0.093,0.095-0.161,0.188-0.153h0.954c0.083-0.014,0.161,0.042,0.175,0.125v0.019l0.539,4.23
			h0.067l0.779-4.188c0.002-0.106,0.09-0.191,0.196-0.19h0.907c0.135,0,0.19,0.062,0.165,0.187l-1.277,5.107
			c-0.009,0.106-0.101,0.185-0.207,0.178h-1.2c-0.094,0.012-0.179-0.055-0.191-0.148c0,0,0,0,0,0v-0.03l-0.486-3.991h-0.034
			l-1.054,3.991C98.843,29.922,98.748,30,98.639,29.995z"/>
		<path class="st2" d="M106.301,29.995h-2.785c-0.08,0.013-0.156-0.042-0.168-0.123c0-0.001,0-0.001,0-0.002
			c-0.004-0.018-0.004-0.037,0-0.055l0.359-5.113c-0.006-0.094,0.066-0.174,0.159-0.18c0,0,0,0,0.001,0
			c0.01-0.001,0.021-0.001,0.031,0h2.784c0.113,0,0.166,0.06,0.157,0.178l-0.04,0.579c0.006,0.092-0.063,0.172-0.155,0.18h-1.807
			c-0.068,0-0.104,0.031-0.109,0.094l-0.077,1.106c0,0.062,0.027,0.094,0.095,0.094h1.455c0.08-0.013,0.155,0.041,0.168,0.12
			c0,0.001,0,0.003,0.001,0.004c0.004,0.019,0.004,0.039,0,0.059l-0.04,0.579c0.005,0.094-0.067,0.175-0.162,0.18c0,0,0,0,0,0
			h-1.484c-0.068,0-0.104,0.031-0.109,0.094l-0.082,1.182c0,0.062,0.027,0.094,0.095,0.094h1.785c0.113,0,0.166,0.06,0.157,0.178
			l-0.04,0.579c0.007,0.092-0.062,0.172-0.154,0.18c0,0-0.001,0-0.001,0C106.323,30,106.311,29.998,106.301,29.995z"/>
		<path class="st2" d="M108.038,29.995h-0.723c-0.08,0.013-0.155-0.041-0.168-0.12c0-0.001,0-0.003-0.001-0.004
			c-0.004-0.019-0.004-0.039,0-0.059l0.358-5.113c-0.005-0.094,0.067-0.175,0.162-0.18c0,0,0,0,0,0h2.054
			c0.374-0.026,0.742,0.107,1.013,0.367c0.246,0.283,0.356,0.659,0.303,1.03l-0.046,0.663c0.01,0.56-0.327,1.068-0.847,1.277v0.034
			l0.778,1.899c0.042,0.136-0.011,0.203-0.158,0.203h-0.688c-0.074,0.005-0.149-0.006-0.218-0.034
			c-0.051-0.033-0.087-0.085-0.101-0.145l-0.722-1.838h-0.57c-0.052-0.007-0.1,0.028-0.107,0.08v0.014l-0.125,1.746
			c0.001,0.094-0.074,0.172-0.168,0.173c0,0,0,0,0,0L108.038,29.995z M108.512,27.109h0.834c0.145,0.011,0.289-0.03,0.408-0.115
			c0.102-0.097,0.157-0.233,0.153-0.374l0.046-0.663c0.024-0.136-0.013-0.276-0.1-0.383c-0.109-0.092-0.251-0.137-0.393-0.125
			h-0.839c-0.049-0.005-0.094,0.03-0.1,0.08c-0.001,0.005-0.001,0.01,0,0.015l-0.102,1.464c0,0.071,0.029,0.102,0.092,0.102V27.109z
			"/>
		<path class="st2" d="M114.472,29.995h-2.785c-0.08,0.013-0.156-0.042-0.168-0.123c0-0.001,0-0.001,0-0.002
			c-0.004-0.018-0.004-0.037,0-0.055l0.358-5.113c-0.005-0.094,0.067-0.175,0.162-0.18c0,0,0,0,0,0h2.814
			c0.112,0,0.166,0.06,0.157,0.178l-0.04,0.579c0.006,0.092-0.063,0.172-0.155,0.18h-1.801c-0.067,0-0.104,0.031-0.107,0.094
			l-0.077,1.106c0,0.062,0.027,0.094,0.095,0.094h1.453c0.08-0.013,0.155,0.041,0.168,0.12c0,0.001,0,0.003,0.001,0.004
			c0.004,0.019,0.004,0.039,0,0.059l-0.041,0.581c0.005,0.094-0.067,0.175-0.162,0.18c0,0,0,0,0,0h-1.484
			c-0.068,0-0.104,0.031-0.108,0.094l-0.082,1.182c0,0.062,0.027,0.094,0.095,0.094h1.78c0.113,0,0.166,0.06,0.157,0.178
			l-0.04,0.579c0.005,0.092-0.066,0.171-0.158,0.176c0,0,0,0,0,0C114.491,30,114.481,29.999,114.472,29.995z"/>
		<path class="st2" d="M115.319,29.815l0.358-5.113c-0.005-0.094,0.067-0.175,0.162-0.18c0,0,0,0,0,0h2.131
			c0.372-0.027,0.738,0.105,1.008,0.363c0.244,0.282,0.353,0.656,0.299,1.025l-0.188,2.698c-0.006,0.387-0.165,0.756-0.441,1.026
			c-0.294,0.252-0.673,0.381-1.06,0.362h-2.101c-0.08,0.013-0.155-0.041-0.168-0.12c0-0.001,0-0.003-0.001-0.004
			C115.314,29.853,115.315,29.834,115.319,29.815z M116.547,29.058h0.928c0.248,0.046,0.486-0.117,0.533-0.365
			c0.008-0.044,0.01-0.089,0.005-0.134l0.181-2.597c0.064-0.208-0.053-0.429-0.261-0.492c0,0-0.001,0-0.001,0
			c-0.066-0.02-0.137-0.022-0.205-0.007h-0.928c-0.048-0.007-0.093,0.027-0.1,0.076c0,0,0,0,0,0c-0.001,0.006-0.001,0.012,0,0.017
			l-0.238,3.413C116.455,29.027,116.485,29.058,116.547,29.058L116.547,29.058z"/>
		<path class="st2" d="M121.336,29.815l0.358-5.113c-0.005-0.094,0.067-0.175,0.162-0.18c0,0,0,0,0,0h2.072
			c0.373-0.027,0.741,0.102,1.014,0.358c0.241,0.282,0.348,0.654,0.294,1.021l-0.024,0.349c-0.003,0.444-0.306,0.829-0.737,0.937
			c0.204,0.024,0.391,0.123,0.525,0.278c0.135,0.185,0.192,0.416,0.158,0.642l-0.035,0.51c-0.006,0.385-0.164,0.752-0.438,1.021
			c-0.293,0.251-0.67,0.379-1.055,0.358h-2.12c-0.079,0.015-0.156-0.037-0.171-0.116c0,0,0-0.001,0-0.001
			C121.334,29.859,121.333,29.837,121.336,29.815z M122.562,29.092h0.954c0.147,0.011,0.293-0.029,0.413-0.113
			c0.096-0.101,0.149-0.235,0.148-0.374l0.035-0.499c0.024-0.134-0.013-0.271-0.101-0.374c-0.119-0.085-0.265-0.124-0.41-0.11
			h-0.937c-0.049-0.005-0.094,0.03-0.1,0.08c-0.001,0.005-0.001,0.009,0,0.014l-0.09,1.287c0,0.064,0.024,0.094,0.087,0.094
			L122.562,29.092z M122.727,26.742h0.873c0.145,0.011,0.289-0.03,0.408-0.115c0.1-0.099,0.156-0.234,0.155-0.374l0.022-0.332
			c0.022-0.133-0.013-0.269-0.096-0.374c-0.109-0.087-0.249-0.128-0.388-0.115h-0.873c-0.049-0.005-0.094,0.03-0.1,0.08
			c-0.001,0.005-0.001,0.01,0,0.015l-0.079,1.131C122.635,26.711,122.665,26.742,122.727,26.742z"/>
		<path class="st2" d="M127.777,29.995h-0.723c-0.08,0.013-0.155-0.041-0.168-0.12c0-0.001,0-0.003-0.001-0.004
			c-0.004-0.019-0.004-0.039,0-0.059l0.125-1.822l-1.328-3.286c-0.019-0.041-0.014-0.088,0.012-0.125
			c0.029-0.039,0.076-0.06,0.125-0.056h0.902c0.091,0,0.155,0.06,0.192,0.178l0.706,2.069h0.059l0.979-2.069
			c0.027-0.1,0.114-0.172,0.217-0.178h0.902c0.048-0.007,0.095,0.013,0.125,0.051c0.024,0.034,0.019,0.08-0.014,0.136l-1.787,3.286
			l-0.125,1.822c0.003,0.094-0.071,0.172-0.164,0.175c-0.001,0-0.002,0-0.003,0L127.777,29.995z"/>
		<path class="st2" d="M138.753,29.995h-2.791c-0.08,0.013-0.155-0.041-0.168-0.12c0-0.001,0-0.003-0.001-0.004
			c-0.004-0.019-0.004-0.039,0-0.059l0.358-5.113c-0.005-0.094,0.067-0.175,0.162-0.18c0,0,0,0,0,0h2.81
			c0.113,0,0.166,0.06,0.158,0.178l-0.041,0.579c0.007,0.091-0.061,0.172-0.152,0.18h-1.805c-0.052-0.007-0.1,0.028-0.107,0.08
			v0.014l-0.077,1.106c0,0.062,0.027,0.094,0.096,0.094h1.455c0.08-0.013,0.155,0.041,0.168,0.12c0,0.001,0,0.003,0.001,0.004
			c0.004,0.019,0.004,0.039,0,0.059l-0.04,0.579c0.005,0.094-0.067,0.175-0.162,0.18c0,0,0,0,0,0h-1.485
			c-0.067,0-0.104,0.031-0.107,0.094l-0.084,1.182c0,0.062,0.027,0.094,0.096,0.094h1.78c0.113,0,0.166,0.06,0.157,0.178
			l-0.04,0.579c0.006,0.092-0.063,0.172-0.155,0.178c0,0-0.001,0-0.001,0C138.77,29.996,138.761,29.997,138.753,29.995z"/>
		<path class="st2" d="M141.823,29.995h-0.928c-0.373,0.027-0.741-0.102-1.014-0.358c-0.242-0.285-0.349-0.66-0.294-1.03
			l0.188-2.698c0.005-0.388,0.162-0.758,0.438-1.03c0.296-0.25,0.677-0.378,1.064-0.358h0.928c0.372-0.026,0.739,0.106,1.009,0.363
			c0.243,0.283,0.352,0.656,0.299,1.025l-0.029,0.4c0.006,0.098-0.069,0.183-0.168,0.188c0,0,0,0-0.001,0h-0.748
			c-0.12,0-0.175-0.062-0.165-0.187l0.024-0.349c0.064-0.208-0.054-0.428-0.262-0.492c-0.066-0.02-0.137-0.023-0.205-0.007h-0.579
			c-0.139-0.011-0.277,0.03-0.388,0.115c-0.093,0.107-0.144,0.246-0.141,0.388l-0.181,2.597c-0.025,0.135,0.006,0.275,0.087,0.387
			c0.103,0.089,0.239,0.13,0.374,0.115h0.579c0.248,0.046,0.486-0.117,0.533-0.365c0.008-0.044,0.01-0.089,0.005-0.134l0.025-0.35
			c-0.006-0.096,0.066-0.18,0.162-0.187c0.01-0.001,0.019-0.001,0.029,0h0.715c0.083-0.014,0.162,0.041,0.176,0.124c0,0,0,0,0,0.001
			c0.004,0.02,0.004,0.041,0,0.061l-0.027,0.4c-0.007,0.387-0.166,0.756-0.443,1.026C142.591,29.89,142.21,30.017,141.823,29.995z"
			/>
		<path class="st2" d="M145.575,29.995h-0.713c-0.125,0-0.183-0.06-0.175-0.178l0.298-4.265c0.01-0.041-0.014-0.082-0.055-0.092
			c-0.01-0.002-0.021-0.002-0.031,0h-0.97c-0.08,0.013-0.155-0.041-0.168-0.12c0-0.001,0-0.003-0.001-0.004
			c-0.004-0.019-0.004-0.039,0-0.059l0.04-0.579c-0.005-0.094,0.067-0.175,0.162-0.18c0,0,0,0,0,0h3.243
			c0.08-0.013,0.155,0.041,0.168,0.12c0,0.001,0,0.003,0.001,0.004c0.004,0.019,0.004,0.039,0,0.059l-0.04,0.579
			c0.005,0.094-0.067,0.175-0.162,0.18c0,0,0,0,0,0h-0.998c-0.068,0-0.104,0.031-0.108,0.094l-0.299,4.265
			c0.006,0.094-0.066,0.174-0.159,0.18c0,0,0,0-0.001,0L145.575,29.995z"/>
		<path class="st2" d="M148.865,24.699l-0.358,5.113c0.005,0.094-0.067,0.175-0.162,0.18c0,0,0,0,0,0h-0.748
			c-0.08,0.013-0.155-0.041-0.168-0.12c0-0.001,0-0.003-0.001-0.004c-0.004-0.019-0.004-0.039,0-0.059l0.358-5.113
			c-0.005-0.094,0.067-0.175,0.162-0.18c0,0,0,0,0,0h0.748c0.08-0.013,0.156,0.042,0.168,0.123c0,0.001,0,0.001,0,0.002
			C148.868,24.66,148.868,24.68,148.865,24.699z"/>
		<path class="st2" d="M151.585,29.995h-0.907c-0.373,0.029-0.741-0.101-1.013-0.358c-0.242-0.285-0.349-0.66-0.294-1.03
			l0.188-2.698c0.005-0.388,0.162-0.758,0.438-1.03c0.296-0.25,0.676-0.378,1.063-0.358h0.903c0.369-0.024,0.731,0.107,0.998,0.363
			c0.24,0.284,0.347,0.657,0.294,1.025l-0.017,0.249c0.007,0.096-0.065,0.18-0.161,0.188c-0.01,0.001-0.021,0.001-0.031,0h-0.722
			c-0.125,0-0.175-0.062-0.166-0.187l0.015-0.203c0.024-0.135-0.006-0.274-0.084-0.388c-0.104-0.088-0.239-0.129-0.374-0.115h-0.554
			c-0.248-0.042-0.483,0.125-0.525,0.372c-0.007,0.042-0.008,0.084-0.004,0.126l-0.181,2.597c-0.025,0.135,0.007,0.275,0.087,0.387
			c0.103,0.089,0.239,0.13,0.374,0.115h0.552c0.14,0.014,0.281-0.027,0.392-0.115c0.091-0.108,0.14-0.245,0.137-0.387l0.037-0.536
			c0.01-0.041-0.014-0.082-0.055-0.092c-0.01-0.002-0.021-0.002-0.031,0h-0.511c-0.08,0.013-0.156-0.042-0.168-0.123
			c0-0.001,0-0.001,0-0.002c-0.004-0.018-0.004-0.037,0-0.055l0.041-0.579c-0.006-0.094,0.066-0.174,0.159-0.18c0,0,0,0,0.001,0
			c0.01-0.001,0.021-0.001,0.031,0h1.489c0.088-0.014,0.17,0.045,0.185,0.133c0,0,0,0,0,0c0.004,0.02,0.004,0.041,0,0.061
			l-0.1,1.422c-0.006,0.386-0.163,0.755-0.438,1.026C152.344,29.878,151.969,30.01,151.585,29.995z"/>
		<path class="st2" d="M155.994,29.995h-0.95c-0.373,0.029-0.741-0.101-1.013-0.358c-0.242-0.285-0.35-0.66-0.296-1.03l0.186-2.698
			c0.005-0.388,0.162-0.758,0.439-1.03c0.296-0.25,0.676-0.378,1.063-0.358h0.954c0.373-0.027,0.74,0.102,1.013,0.358
			c0.242,0.285,0.35,0.66,0.296,1.03l-0.188,2.698c-0.005,0.388-0.162,0.758-0.439,1.03
			C156.762,29.888,156.381,30.017,155.994,29.995z M155.276,29.058h0.604c0.248,0.045,0.486-0.119,0.531-0.367
			c0-0.002,0.001-0.005,0.001-0.007c0.006-0.044,0.006-0.088,0-0.132l0.181-2.597c0.064-0.208-0.054-0.428-0.262-0.492
			c-0.066-0.02-0.137-0.023-0.205-0.007h-0.605c-0.14-0.012-0.28,0.029-0.392,0.115c-0.091,0.108-0.14,0.246-0.137,0.388
			l-0.181,2.597c-0.024,0.135,0.006,0.274,0.084,0.387c0.104,0.087,0.239,0.128,0.374,0.111L155.276,29.058z"/>
		<path class="st3" d="M134.544,25.458c0.174-0.002,0.336-0.091,0.433-0.236l0.297-0.441c0.054-0.069,0.042-0.17-0.027-0.224
			c0,0,0,0,0,0c-0.028-0.022-0.062-0.034-0.097-0.034h-2.12c-0.389-0.02-0.771,0.108-1.07,0.358
			c-0.278,0.269-0.441,0.635-0.455,1.021l0,0l-0.101,1.161l0,0c-0.061,0.365,0.04,0.738,0.277,1.021
			c0.27,0.256,0.636,0.386,1.006,0.358h0.488c0.092,0,0.147-0.075,0.157-0.178l0.049-0.57c0.012-0.091-0.053-0.174-0.144-0.186
			c-0.001,0-0.002,0-0.002,0h-0.296c-0.135,0.016-0.271-0.026-0.374-0.115c-0.079-0.113-0.109-0.253-0.081-0.388l0.091-1.041
			c0.001-0.143,0.054-0.281,0.148-0.388c0.111-0.085,0.25-0.126,0.389-0.115L134.544,25.458z"/>
		<path class="st3" d="M133.323,26.076c-0.099,0-0.148,0.075-0.157,0.178l-0.05,0.57c-0.01,0.093,0.056,0.176,0.148,0.187h0.293
			c0.135-0.016,0.271,0.026,0.374,0.115c0.079,0.112,0.108,0.252,0.081,0.387l-0.091,1.041c0,0.143-0.053,0.281-0.148,0.388
			c-0.111,0.086-0.25,0.127-0.389,0.115h-1.468c-0.174,0.002-0.336,0.091-0.433,0.236l-0.298,0.443
			c-0.054,0.07-0.041,0.17,0.029,0.224c0,0,0.001,0,0.001,0.001c0.028,0.021,0.061,0.033,0.096,0.034h2.156
			c0.389,0.021,0.771-0.107,1.069-0.358c0.278-0.269,0.441-0.634,0.455-1.02l0,0l0.102-1.161l0,0
			c0.06-0.365-0.042-0.737-0.278-1.021c-0.27-0.257-0.635-0.387-1.006-0.358L133.323,26.076z"/>
	</g>
</g>
</svg>
