<?xml version="1.0" encoding="utf-8"?>
<!-- Generator: Adobe Illustrator 23.0.1, SVG Export Plug-In . SVG Version: 6.00 Build 0)  -->
<svg version="1.1" id="Layer_1" xmlns="http://www.w3.org/2000/svg" xmlns:xlink="http://www.w3.org/1999/xlink" x="0px" y="0px"
	 width="183px" height="47px" viewBox="0 0 183 47" style="enable-background:new 0 0 183 47;" xml:space="preserve">
<style type="text/css">
	.st0{fill:#06AF72;}
	.st1{fill:#091B2A;}
</style>
<g>
	<g id="Layer_1-2">
		<path class="st0" d="M26.7,8.4c0.4-0.4,0.4-1,0-1.4c-0.2-0.2-0.6-0.3-0.7-0.3H12.5C9.9,6.4,7.6,7.3,5.8,8.8c-1.8,1.7-2.9,4-3,6.4
			l0,0l-0.6,7.3l0,0C1.8,24.9,2.5,27.1,4,29c1.8,1.7,4.1,2.4,6.4,2.2h3c0.6-0.1,1-0.6,1-1.1l0.3-3.6c0.1-0.6-0.4-1.1-0.9-1.2h-0.1
			H12c-0.8,0.1-1.7-0.2-2.3-0.7C9.1,24,9,23,9.1,22.2l0.6-6.5c0-0.9,0.4-1.8,0.9-2.4c0.7-0.6,1.6-0.7,2.4-0.7h9.1
			c1.1,0,2.1-0.6,2.8-1.4L26.7,8.4z"/>
		<path class="st0" d="M0.8,39.3c-0.4,0.4-0.4,1,0,1.4C1,41,1.4,41.1,1.5,41.1h13.6c2.4,0.2,5-0.6,6.8-2.3c1.8-1.7,2.8-4,2.9-6.4
			l0,0l0.6-7.3l0,0c0.4-2.3-0.3-4.5-1.8-6.4c-1.8-1.7-4.1-2.4-6.5-2.3h-3c-0.6,0.1-1,0.6-1,1.1l-0.4,3.6c-0.1,0.6,0.4,1.1,1,1.2h0.1
			h1.8c0.8-0.1,1.7,0.2,2.3,0.7c0.6,0.7,0.6,1.6,0.6,2.4l-0.6,6.5c0,0.9-0.4,1.8-0.9,2.4c-0.7,0.6-1.6,0.8-2.4,0.7H5.4
			c-1.1,0-2.1,0.6-2.8,1.4L0.8,39.3z"/>
		<path class="st1" d="M47.1,41H29.5c-0.7,0-1.1-0.4-1-1.1l2.8-32.2c0-0.6,0.6-1.1,1.1-1.1c0.1,0,0.1,0,0.1,0H50c0.7,0,1,0.4,1,1.1
			l-0.4,3.7c0,0.6-0.6,1.1-1,1.1c-0.1,0-0.1,0-0.2,0H38.3c-0.6,0-0.6,0.2-0.7,0.6L37,20.2c0,0.4,0.2,0.6,0.6,0.6h9.2
			c0.7,0,1.1,0.4,1,1.1l-0.3,3.6c0,0.6-0.6,1.1-1,1.1c-0.1,0-0.1,0-0.2,0h-9.2c-0.6,0-0.6,0.2-0.6,0.6L36,34.5
			c0,0.4,0.2,0.6,0.6,0.6h11.2c0.7,0,1,0.4,1,1.1l-0.6,3.6c0,0.6-0.6,1.1-1,1.1C47.2,41,47.2,41,47.1,41"/>
		<path class="st1" d="M66.2,41h-5.9c-2.4,0.2-4.7-0.6-6.4-2.3c-1.4-1.8-2.1-4.2-1.8-6.4l1.4-17.1c0.1-2.4,1.1-4.8,2.9-6.5
			c1.9-1.6,4.3-2.4,6.8-2.2h5.9c2.3-0.2,4.5,0.6,6.4,2.3c1.4,1.8,2.1,4.1,1.8,6.4L77,17.6c0,0.6-0.6,1.2-1.1,1.2c-0.1,0-0.1,0-0.2,0
			h-4.5c-0.7,0-1.1-0.4-1-1.2l0.2-2.1c0.2-0.8,0-1.8-0.6-2.4c-0.6-0.6-1.6-0.8-2.4-0.7h-3.8c-0.9-0.1-1.8,0.2-2.4,0.7
			c-0.6,0.6-0.9,1.6-0.9,2.4l-1.4,16.3c-0.2,0.8,0,1.8,0.6,2.4c0.6,0.6,1.4,0.8,2.3,0.7h3.7c0.9,0.1,1.8-0.2,2.4-0.7
			c0.6-0.6,0.9-1.6,0.9-2.4l0.2-2.2c0-0.6,0.6-1.1,1.1-1.2c0.1,0,0.1,0,0.2,0h4.4c0.7,0,1.1,0.4,1.1,1.2l-0.2,2.7
			c-0.1,2.4-1.1,4.8-3,6.4c-1.9,1.6-4.3,2.4-6.8,2.3"/>
		<path class="st1" d="M91.1,41h-4.4c-0.7,0-1.2-0.4-1.1-1.1L88,13c0-0.4-0.1-0.6-0.6-0.6h-6.2c-0.7,0-1.1-0.4-1-1.1l0.4-3.7
			c0-0.6,0.6-1.1,1.1-1.1c0.1,0,0.1,0,0.1,0h20.3c0.7,0,1.1,0.4,1,1.1l-0.4,3.7c0,0.6-0.6,1.1-1.1,1.1c-0.1,0-0.1,0-0.1,0h-6.2
			c-0.6,0-0.6,0.2-0.7,0.6l-2.4,26.9C92.2,40.6,91.8,41,91.1,41L91.1,41"/>
		<path class="st1" d="M113.4,7.7L110.6,40c0,0.6-0.6,1.1-1.1,1.1c-0.1,0-0.1,0-0.1,0h-4.5c-0.7,0-1.1-0.4-1-1.1l2.9-32.3
			c0-0.6,0.6-1.1,1.1-1.1c0.1,0,0.1,0,0.1,0h4.5C113.1,6.5,113.5,6.9,113.4,7.7"/>
		<path class="st1" d="M157.4,41h-6.1c-2.3,0.2-4.7-0.6-6.4-2.3c-1.4-1.8-2.1-4.2-1.8-6.4l1.4-17.1c0.1-2.4,1.1-4.8,2.9-6.5
			c1.9-1.6,4.3-2.4,6.8-2.2h6.1c2.3-0.2,4.7,0.6,6.4,2.2c1.4,1.8,2.1,4.2,1.8,6.5l-1.6,17.1c-0.1,2.4-1.1,4.8-2.9,6.4
			C162.4,40.4,159.8,41.2,157.4,41 M152.8,35.1h3.9c0.9,0.1,1.8-0.2,2.4-0.7c0.6-0.6,0.9-1.6,0.9-2.4l1.4-16.3
			c0.2-0.8,0-1.8-0.6-2.4c-0.6-0.6-1.6-0.8-2.4-0.7h-3.8c-0.9-0.1-1.8,0.2-2.4,0.7c-0.6,0.6-0.9,1.6-0.9,2.4L149.9,32
			c-0.2,0.8,0,1.8,0.6,2.4C151.3,34.9,152.1,35.2,152.8,35.1"/>
		<path class="st1" d="M134.5,18h4.5c0.6,0.1,1.2-0.4,1.2-1c0-0.1,0-0.1,0-0.2l0.1-1.6c0.6-2.3-0.2-4.7-1.8-6.4
			c-1.7-1.7-4-2.4-6.4-2.3h-5.7c-2.4-0.2-4.9,0.6-6.8,2.2c-1.8,1.8-2.8,4.1-2.9,6.5l-1.4,17.1c-0.6,2.3,0.2,4.7,1.8,6.4
			c1.8,1.7,4.1,2.4,6.4,2.3h5.8c2.4,0.1,4.9-0.7,6.7-2.3c1.8-1.8,2.8-4.1,2.9-6.4l0.7-8.9c0-0.8-0.3-1.3-1.1-1.3h-10.7
			c-0.6,0-1.2,0.6-1.2,1.2c0,0.2,0,0.4,0.1,0.6l1.4,2.8c0.6,0.9,1.4,1.4,2.4,1.4h1.2c0.4,0,0.6,0.2,0.6,0.6l-0.3,3.4
			c0,0.9-0.3,1.8-0.9,2.4c-0.7,0.6-1.7,0.7-2.6,0.6h-3.3c-0.8,0.1-1.7-0.2-2.3-0.7c-0.6-0.7-0.6-1.6-0.6-2.4l1.4-16.3
			c0-0.9,0.4-1.8,0.9-2.4c0.7-0.6,1.6-0.7,2.4-0.7h3.4c0.8-0.1,1.8,0.2,2.4,0.7c0.6,0.7,0.6,1.6,0.6,2.4l-0.1,1.3
			C133.4,17.8,133.7,18,134.5,18"/>
	</g>
</g>
</svg>
