<svg width="16" height="24" viewBox="0 0 16 24" fill="none" xmlns="http://www.w3.org/2000/svg">
<path d="M2 24C0.895432 24 9.2251e-07 23.1046 8.74228e-07 22L0 2C-4.82823e-08 0.89543 0.895431 1.35705e-07 2 8.74229e-08C3.10457 3.91406e-08 4 0.895431 4 2L4 22C4 23.1046 3.10457 24 2 24Z" fill="#232323"/>
<path d="M8.74228e-07 22C8.74228e-07 20.8954 0.895432 20 2 20H14C15.1046 20 16 20.8954 16 22C16 23.1046 15.1046 24 14 24H2C0.895432 24 9.2251e-07 23.1046 8.74228e-07 22Z" fill="#232323"/>
<path d="M8 18C6.89543 18 6 17.1046 6 16L6 2C6 0.89543 6.89543 4.82823e-08 8 0C9.10457 -4.82823e-08 10 0.895431 10 2L10 16C10 17.1046 9.10457 18 8 18Z" fill="#232323"/>
<path d="M14 18C12.8954 18 12 17.1046 12 16L12 2C12 0.89543 12.8954 4.82823e-08 14 0C15.1046 -4.82823e-08 16 0.895431 16 2V16C16 17.1046 15.1046 18 14 18Z" fill="#232323"/>
</svg>
