<svg width="29" height="24" viewBox="0 0 29 24" fill="none" xmlns="http://www.w3.org/2000/svg">
<path d="M6 2C6 0.895431 6.89543 0 8 0H27C28.1046 0 29 0.895431 29 2C29 3.10457 28.1046 4 27 4H8C6.89543 4 6 3.10457 6 2Z" fill="#232323"/>
<path d="M6 9C6 7.89543 6.89543 7 8 7H27C28.1046 7 29 7.89543 29 9C29 10.1046 28.1046 11 27 11H8C6.89543 11 6 10.1046 6 9Z" fill="#232323"/>
<path d="M2 24C0.895432 24 9.2251e-07 23.1046 8.74228e-07 22L0 2C-4.82823e-08 0.89543 0.895431 4.82823e-08 2 0C3.10457 -4.82823e-08 4 0.895431 4 2L4 22C4 23.1046 3.10457 24 2 24Z" fill="#232323"/>
<path d="M8.74228e-07 22C8.74228e-07 20.8954 0.895432 20 2 20H27C28.1046 20 29 20.8954 29 22C29 23.1046 28.1046 24 27 24H2C0.895432 24 9.2251e-07 23.1046 8.74228e-07 22Z" fill="#232323"/>
<path d="M6 16C6 14.8954 6.89543 14 8 14H27C28.1046 14 29 14.8954 29 16C29 17.1046 28.1046 18 27 18H8C6.89543 18 6 17.1046 6 16Z" fill="#232323"/>
</svg>
