<?xml version="1.0" encoding="utf-8"?>
<!-- Generator: Adobe Illustrator 25.2.1, SVG Export Plug-In . SVG Version: 6.00 Build 0)  -->
<svg version="1.1" id="Layer_1" xmlns="http://www.w3.org/2000/svg" xmlns:xlink="http://www.w3.org/1999/xlink" x="0px" y="0px"
	 width="161px" height="65.137px" viewBox="0 0 161 65.137" style="enable-background:new 0 0 161 65.137;" xml:space="preserve">
<style type="text/css">
	.st0{fill:#E9EEF1;}
	.st1{fill:#FFFFFF;}
	.st2{fill:#ABB6BF;}
	.st3{fill:#0174C3;}
	.st4{fill:#015A99;}
	.st5{fill:#0789E1;}
	.st6{fill:#0F9DFF;}
</style>
<g>
	<g>
		<path class="st0" d="M126.233,8.854c13.431,0,24.318,10.888,24.318,24.318l0,0c0,13.431-10.888,24.318-24.318,24.318H31.965
			c-13.431,0-24.318-10.888-24.318-24.318l0,0c0-13.431,10.888-24.318,24.318-24.318L126.233,8.854 M126.233,1.207H31.965
			c-4.312,0-8.499,0.846-12.445,2.515c-3.807,1.61-7.225,3.914-10.158,6.847c-2.933,2.933-5.237,6.351-6.847,10.158
			C0.846,24.674,0,28.861,0,33.172c0,4.312,0.846,8.499,2.515,12.445c1.61,3.807,3.914,7.225,6.847,10.158
			c2.933,2.933,6.351,5.237,10.158,6.847c3.946,1.669,8.133,2.515,12.445,2.515h94.268c4.312,0,8.499-0.846,12.445-2.515
			c3.807-1.61,7.225-3.914,10.158-6.847c2.933-2.933,5.237-6.351,6.847-10.158c1.669-3.946,2.515-8.133,2.515-12.445
			s-0.846-8.499-2.515-12.445c-1.61-3.807-3.914-7.225-6.847-10.158c-2.933-2.933-6.351-5.237-10.158-6.847
			C134.732,2.054,130.545,1.207,126.233,1.207L126.233,1.207z"/>
	</g>
	<g>
		<circle class="st1" cx="155.746" cy="5.254" r="4.723"/>
		<path class="st2" d="M155.746,1.062c2.315,0,4.192,1.877,4.192,4.192s-1.877,4.192-4.192,4.192s-4.192-1.877-4.192-4.192
			S153.431,1.062,155.746,1.062 M155.746,0c-2.897,0-5.254,2.357-5.254,5.254s2.357,5.254,5.254,5.254S161,8.151,161,5.254
			S158.643,0,155.746,0L155.746,0z"/>
	</g>
	<g>
		<g>
			<path class="st3" d="M53.17,29.423c0-2.093,0.558-3.771,1.674-5.036c1.116-1.264,2.555-1.897,4.316-1.897
				c0.576,0,1.107,0.07,1.596,0.209c0.488,0.14,0.877,0.314,1.164,0.523c0.288,0.209,0.54,0.419,0.759,0.628
				c0.218,0.209,0.37,0.384,0.458,0.523l0.105,0.209h0.052c-0.035-0.262-0.052-0.558-0.052-0.889v-6.121h2.537v18.468h-2.407v-1.256
				l0.026-0.89h-0.052c-0.035,0.07-0.083,0.157-0.144,0.262c-0.061,0.105-0.209,0.301-0.445,0.589
				c-0.235,0.288-0.506,0.541-0.811,0.759c-0.305,0.218-0.719,0.415-1.243,0.589c-0.523,0.174-1.09,0.262-1.7,0.262
				c-1.779,0-3.196-0.637-4.251-1.91C53.697,33.173,53.17,31.499,53.17,29.423z M55.759,29.423c0,1.43,0.344,2.577,1.033,3.44
				c0.689,0.863,1.591,1.295,2.708,1.295c1.081,0,1.988-0.396,2.721-1.19c0.733-0.793,1.099-1.984,1.099-3.571
				c0-1.273-0.327-2.376-0.981-3.309c-0.654-0.933-1.574-1.4-2.76-1.4c-1.082,0-1.988,0.423-2.721,1.269
				C56.126,26.803,55.759,27.958,55.759,29.423z"/>
			<path class="st3" d="M67.919,20.163v-2.59h2.564v2.59H67.919z M67.945,36.042V22.805h2.538v13.236H67.945z"/>
			<path class="st3" d="M74.352,38.448c1.099,0.593,2.311,0.889,3.636,0.889c1.256,0,2.267-0.301,3.034-0.902
				c0.767-0.602,1.151-1.539,1.151-2.812v-0.968l0.026-0.837h-0.052c-0.82,1.378-2.128,2.067-3.924,2.067
				c-1.797,0-3.231-0.641-4.303-1.923c-1.073-1.282-1.609-2.899-1.609-4.852c0-1.953,0.514-3.544,1.543-4.774
				c1.029-1.229,2.441-1.844,4.238-1.844c0.592,0,1.142,0.065,1.648,0.196c0.506,0.131,0.907,0.297,1.203,0.497
				c0.296,0.201,0.549,0.397,0.759,0.589c0.209,0.192,0.349,0.358,0.419,0.497l0.131,0.183h0.052
				c-0.018-0.122-0.026-0.262-0.026-0.419v-1.229h2.433v12.687c0,1.047-0.188,1.971-0.562,2.773
				c-0.376,0.802-0.886,1.434-1.53,1.896c-0.646,0.462-1.352,0.807-2.119,1.033c-0.768,0.226-1.587,0.34-2.459,0.34
				c-1.587,0-3.096-0.366-4.526-1.099L74.352,38.448z M78.721,33.687c1.029,0,1.87-0.357,2.524-1.072
				c0.654-0.715,0.981-1.874,0.981-3.479c0-2.965-1.247-4.447-3.741-4.447c-1.134,0-2.019,0.388-2.655,1.164
				c-0.637,0.776-0.955,1.844-0.955,3.204c0,1.396,0.344,2.516,1.033,3.361C76.598,33.265,77.535,33.687,78.721,33.687z"/>
			<path class="st3" d="M86.799,20.163v-2.59h2.564v2.59H86.799z M86.826,36.042V22.805h2.538v13.236H86.826z"/>
			<path class="st3" d="M91.219,29.423c0-1.971,0.667-3.619,2.001-4.944c1.334-1.325,3.03-1.988,5.088-1.988
				c0.976,0,1.879,0.161,2.707,0.484c0.828,0.323,1.417,0.65,1.766,0.981l0.497,0.471l-1.204,1.779
				c-0.105-0.105-0.257-0.244-0.458-0.419c-0.201-0.174-0.619-0.401-1.256-0.68c-0.637-0.279-1.286-0.419-1.949-0.419
				c-1.325,0-2.424,0.445-3.296,1.334c-0.872,0.89-1.308,2.014-1.308,3.375c0,1.36,0.44,2.494,1.321,3.401
				c0.88,0.907,2.001,1.36,3.361,1.36c0.733,0,1.439-0.148,2.119-0.445c0.68-0.296,1.177-0.593,1.491-0.889l0.471-0.445l1.02,1.857
				c-0.052,0.052-0.127,0.127-0.223,0.222c-0.096,0.096-0.31,0.266-0.641,0.51c-0.332,0.244-0.689,0.458-1.073,0.641
				c-0.384,0.183-0.876,0.353-1.478,0.51c-0.601,0.157-1.225,0.235-1.87,0.235c-2.076,0-3.776-0.654-5.101-1.962
				C91.881,33.086,91.219,31.429,91.219,29.423z"/>
			<path class="st3" d="M103.908,29.423c0-2.075,0.623-3.749,1.87-5.022c1.246-1.273,2.829-1.91,4.748-1.91
				c1.796,0,3.2,0.585,4.211,1.753c1.011,1.169,1.517,2.651,1.517,4.447l-0.078,1.099h-9.653c0.069,1.395,0.536,2.472,1.4,3.231
				c0.863,0.759,1.914,1.138,3.152,1.138c0.68,0,1.348-0.131,2.001-0.392c0.654-0.261,1.138-0.514,1.452-0.759l0.471-0.392
				l1.047,1.857c-0.14,0.14-0.349,0.314-0.628,0.523c-0.279,0.209-0.863,0.489-1.753,0.837c-0.89,0.349-1.805,0.523-2.747,0.523
				c-2.058,0-3.741-0.658-5.049-1.975C104.561,33.064,103.908,31.412,103.908,29.423z M106.602,27.88h7.063
				c-0.035-1.099-0.353-1.936-0.955-2.511c-0.601-0.576-1.347-0.863-2.236-0.863c-0.994,0-1.844,0.297-2.551,0.89
				C107.217,25.988,106.776,26.817,106.602,27.88z"/>
			<path class="st3" d="M118.084,36.042V22.805h2.459v2.302l-0.052,0.994h0.052c0.314-1.011,0.841-1.84,1.583-2.485
				c0.741-0.645,1.609-0.968,2.603-0.968l0.654,0.052v2.511c-0.227-0.052-0.471-0.078-0.733-0.078c-0.82,0-1.569,0.279-2.25,0.837
				c-0.68,0.558-1.169,1.317-1.465,2.276c-0.209,0.68-0.314,1.474-0.314,2.38v5.415L118.084,36.042L118.084,36.042z"/>
			<path class="st3" d="M128.63,31.202v-6.173h-1.726v-2.04h1.805v-3.819h2.459v3.819h3.191v2.04h-3.191v5.886
				c0,0.506,0.069,0.946,0.209,1.321c0.139,0.375,0.31,0.667,0.51,0.876c0.2,0.209,0.435,0.375,0.706,0.497
				c0.27,0.122,0.514,0.201,0.732,0.235c0.218,0.035,0.44,0.052,0.667,0.052l0.601-0.052v2.25c-0.244,0.035-0.541,0.052-0.889,0.052
				c-0.419,0-0.82-0.026-1.204-0.078c-0.384-0.052-0.82-0.183-1.308-0.392c-0.489-0.209-0.911-0.484-1.269-0.824
				c-0.358-0.34-0.663-0.824-0.915-1.452C128.757,32.772,128.63,32.039,128.63,31.202z"/>
			<path class="st3" d="M135.997,17.54c-1.063,0-1.917,0.856-1.917,1.918c0,1.055,0.854,1.914,1.917,1.914
				c1.059,0,1.917-0.859,1.917-1.914C137.914,18.396,137.056,17.54,135.997,17.54 M135.997,20.998c-0.854,0-1.541-0.691-1.541-1.54
				c0-0.852,0.688-1.544,1.541-1.544c0.851,0,1.539,0.692,1.539,1.544C137.536,20.308,136.848,20.998,135.997,20.998"/>
			<g>
				<path class="st3" d="M135.334,20.515v-2.118h0.648c0.178,0,0.31,0.016,0.396,0.048c0.11,0.04,0.197,0.111,0.261,0.213
					c0.064,0.102,0.096,0.222,0.096,0.36c0,0.136-0.034,0.256-0.103,0.36c-0.069,0.104-0.161,0.175-0.277,0.213v0.006
					c0.016,0.018,0.037,0.05,0.063,0.096l0.45,0.822h-0.336l-0.447-0.843h-0.453v0.843H135.334z M135.631,19.414h0.426
					c0.116,0,0.208-0.035,0.274-0.103c0.067-0.069,0.101-0.162,0.101-0.281c0-0.156-0.056-0.265-0.168-0.327
					c-0.06-0.032-0.157-0.048-0.291-0.048h-0.342L135.631,19.414L135.631,19.414z"/>
			</g>
		</g>
	</g>
	<g>
		<path class="st2" d="M86.714,48.115l0.582-0.905c0.471,0.349,1.181,0.674,2.046,0.674c0.841,0,1.359-0.381,1.359-1.043
			c0-0.761-0.655-0.962-1.733-1.339c-0.967-0.338-1.918-0.826-1.918-2.195c0-1.284,1.012-1.982,2.374-1.982
			c0.904,0,1.572,0.178,2.108,0.494l-0.465,0.963c-0.451-0.234-0.989-0.393-1.622-0.393c-0.758,0-1.213,0.286-1.213,0.887
			c0,0.706,0.528,0.886,1.519,1.212c1.033,0.334,2.172,0.812,2.172,2.331c0,1.282-0.918,2.129-2.563,2.129
			C88.139,48.949,87.242,48.527,86.714,48.115"/>
		<polygon class="st2" points="94.131,41.442 98.538,41.442 98.538,42.465 95.385,42.465 95.385,44.488 97.876,44.488 
			97.876,45.491 95.385,45.491 95.385,47.829 98.731,47.829 98.731,48.852 94.131,48.852 		"/>
		<path class="st2" d="M100.338,45.152c0-2.161,1.034-3.826,3.101-3.826c0.926,0,1.657,0.292,2.171,0.894l-0.731,0.846
			c-0.443-0.433-0.817-0.645-1.421-0.645c-1.213,0-1.773,0.992-1.773,2.826c0,1.722,0.591,2.594,1.784,2.594
			c0.662,0,1.128-0.348,1.536-0.78l0.738,0.822c-0.537,0.634-1.209,1.066-2.286,1.066C101.329,48.949,100.338,47.324,100.338,45.152
			"/>
		<path class="st2" d="M107.879,45.92v-4.574h1.264v4.779c0,1.017,0.252,1.684,1.327,1.684c1.065,0,1.33-0.667,1.33-1.684v-4.779
			h1.276v4.574c0,1.836-0.706,2.933-2.616,2.933C108.583,48.853,107.879,47.757,107.879,45.92"/>
		<path class="st2" d="M120.693,48.852h-1.37l-1.422-3.142h-1.171v3.142h-1.254v-7.411h2.417c1.496,0,2.664,0.537,2.664,2.161
			c0,1.108-0.664,1.663-1.404,1.928L120.693,48.852z M117.847,44.742c0.94,0,1.423-0.306,1.423-1.162
			c0-0.823-0.493-1.115-1.349-1.115h-1.192v2.277L117.847,44.742L117.847,44.742z"/>
		<polygon class="st2" points="122.677,41.442 127.083,41.442 127.083,42.465 123.93,42.465 123.93,44.488 126.417,44.488 
			126.417,45.491 123.93,45.491 123.93,47.829 127.272,47.829 127.272,48.852 122.677,48.852 		"/>
		<path class="st2" d="M129.321,41.441h1.85c2.415,0,3.577,1.308,3.577,3.678c0,2.416-1.182,3.732-3.512,3.732h-1.915V41.441z
			 M131.099,47.829c1.729,0,2.32-0.799,2.32-2.709c0-1.676-0.464-2.655-2.165-2.655h-0.674v5.364H131.099z"/>
	</g>
	<polygon class="st3" points="20.946,27.508 16.368,32.228 29.348,45.02 47.332,23.779 42.187,19.437 28.971,35.438 	"/>
	<g>
		<path class="st4" d="M14.689,16.057c4.407-4.448,10.52-7.203,17.276-7.203V1.207c-4.312,0-8.499,0.846-12.445,2.515
			c-3.807,1.61-7.225,3.914-10.158,6.847L14.689,16.057z"/>
	</g>
	<g>
		<path class="st3" d="M7.647,33.172L7.647,33.172c0-6.675,2.689-12.721,7.042-17.115L9.362,10.57
			c-2.933,2.933-5.237,6.351-6.847,10.158C0.846,24.674,0,28.861,0,33.172H7.647z"/>
	</g>
	<g>
		<path class="st5" d="M14.85,50.448c-4.448-4.407-7.203-10.52-7.203-17.276H0c0,4.312,0.846,8.499,2.515,12.445
			c1.61,3.807,3.914,7.225,6.847,10.158L14.85,50.448z"/>
	</g>
	<g>
		<path class="st6" d="M31.965,57.491L31.965,57.491c-6.675,0-12.721-2.689-17.115-7.042l-5.488,5.327
			c2.933,2.933,6.351,5.237,10.158,6.847c3.946,1.669,8.133,2.515,12.445,2.515L31.965,57.491z"/>
	</g>
	<g>
		<rect x="155.425" y="4.437" class="st2" width="0.642" height="3.612"/>
		<circle class="st2" cx="155.746" cy="2.94" r="0.482"/>
	</g>
</g>
</svg>
