<?xml version="1.0" encoding="utf-8"?>
<!-- Generator: Adobe Illustrator 21.0.2, SVG Export Plug-In . SVG Version: 6.00 Build 0)  -->
<svg version="1.1" id="Layer_1" xmlns="http://www.w3.org/2000/svg" xmlns:xlink="http://www.w3.org/1999/xlink" x="0px" y="0px"
	 width="183px" height="47px" viewBox="0 0 183 47" style="enable-background:new 0 0 183 47;" xml:space="preserve">
<style type="text/css">
	.st0{fill:#794E2E;}
	.st1{fill:#E85626;}
	.st2{fill:#E95525;}
</style>
<g>
	<g>
		<path class="st0" d="M18.1,14.6c0-4.3-3.3-3.9-3.3-3.9H6.6v8h8.2C14.9,18.6,18.1,19.1,18.1,14.6 M0,36.4V4.2h15.8
			c0,0,8.9-0.5,8.9,10.2c0,0,0.4,8.7-6.5,8.7l6.7,13.3H17l-6.4-12.3H6.7v12.3L0,36.4"/>
		<path class="st0" d="M32.3,27.9c1,4.3,4.5,2.6,4.5,2.6c3.3-2.2,2.4-5.5,2.4-5.5C31.3,23.1,32.3,27.9,32.3,27.9 M30,18.5v-6.7
			c0,0,3.5-1.2,6.1-1.1c0,0,8.6-0.9,9.5,6.6V35h-5.4v-1c0,0-2.6,2.1-5.6,2.2c0,0-9,1.1-9.1-8.1c0,0-1.4-8.3,9.8-8.3
			c0,0,1.8-0.2,4.7,1c0,0-0.4-4.5-3.9-4.6C35.5,16.2,33.7,16,30,18.5"/>
		<polyline class="st0" points="77.8,34.9 71.5,34.9 71.4,11.6 77.7,11.6 77.8,34.9 		"/>
		<path class="st0" d="M59.1,30.6c3.2,0,4.5-4.2,4.5-6.7S62,17.3,59,17.3c-3.2,0-3.5,2.1-3.5,2.1v9.1C57.3,30.4,59.1,30.6,59.1,30.6
			 M49.2,43.8l-0.1-32.2h6.5v1.2c0,0,1.8-2.2,5.4-2c0,0,8.1-0.6,8.9,12.9c0,0,0.6,13.7-9.8,12.7c0,0-1.8-0.1-4.4-1.7v6L49.2,43.8"/>
		<path class="st0" d="M91.1,16.3c-3.1,0-4.5,4.3-4.5,6.7c0,2.5,1.5,6.6,4.6,6.6s3.5-2.1,3.5-2.1v-9.1C93,16.5,91.1,16.3,91.1,16.3
			 M101,3.1l0.1,32.2h-6.5v-1.1c0,0-1.7,2.2-5.4,2c0,0-8.1,0.6-8.9-12.9c0,0-0.6-13.7,9.8-12.7c0,0,1.9,0.1,4.4,1.7v-6L101,3.1"/>
		<path class="st1" d="M108.3,26.1c0,0,5.1,4.7,10,2.8c0.7-0.3,1-0.4,2-1.3c0,0,2.7-3.5-4.3-5c0,0-10.7-1.6-11.6-8.1
			c0,0-1.9-8.9,7.8-10.8c0,0,6.9-3.1,14.7,4.6l-4.6,4.3c0,0-6.1-5.2-10.1-1.5c0,0-1.9,2.7,1.9,4.2c0,0,11.6,1.1,12.8,7.8
			c0,0,2.7,7.8-5.4,11.6c0,0-7,3.5-13.1-0.4c-1.7-1.2-5-4.2-5-4.2L108.3,26.1"/>
		<path class="st1" d="M133.1,26.1c0,0,7.6,6,12,1.4c0,0,2.7-3.5-4.3-5c0,0-10.2-1.7-11.6-8.1c0,0-1.9-8.9,7.7-10.8
			c0,0,7-3.2,14.8,4.6l-4.6,4.3c0,0-6.5-5.7-10.1-1.5c0,0-1.9,2.7,1.9,4.2c0,0,11,1.3,12.7,7.8c0,0,2.8,7.8-5.4,11.6
			c0,0-6.7,3.3-13.1-0.3c-1.7-1.2-5.1-4.3-5.1-4.3L133.1,26.1"/>
		<polyline class="st1" points="170.7,28.1 163.7,28.1 163.6,3.7 156.9,3.7 157,35.8 175.4,35.8 170.7,28.1 		"/>
	</g>
	<circle class="st0" cx="74.6" cy="6.3" r="3.2"/>
</g>
<path class="st2" d="M180,29.7c-1.7,0-3,1.3-3,3s1.3,3,3,3s3-1.3,3-3S181.7,29.7,180,29.7z M180.8,32c0,0.5-0.4,0.5-0.9,0.5h-0.4v-1
	h0.7C180.7,31.5,180.8,31.8,180.8,32z M180.6,33c0.5-0.1,0.8-0.5,0.8-1c0-0.7-0.4-1-1.2-1h-1.4v3.6h0.6V33h0.5l0.9,1.5l0,0h0.7
	c-0.4,0.4-1,0.6-1.6,0.6c-1.4,0-2.4-1-2.4-2.4c0-1.4,1-2.4,2.4-2.4s2.4,1,2.4,2.4c0,0.7-0.3,1.3-0.7,1.8L180.6,33z"/>
</svg>
