<?xml version="1.0" encoding="utf-8"?>
<!-- Generator: Adobe Illustrator 21.0.2, SVG Export Plug-In . SVG Version: 6.00 Build 0)  -->
<svg version="1.1" id="Layer_1" xmlns="http://www.w3.org/2000/svg" xmlns:xlink="http://www.w3.org/1999/xlink" x="0px" y="0px"
	 width="183px" height="47px" viewBox="0 0 183 47" style="enable-background:new 0 0 183 47;" xml:space="preserve">
<style type="text/css">
	.st0{fill:#CF0A2C;}
</style>
<g>
	<path class="st0" d="M45.5,24.8c-0.2,1.6-0.7,2.8-1.4,3.8c-1,1.2-2.6,2-4.8,2H38c-2.2,0-3.8-0.7-4.5-1.8c-0.5-0.9-0.6-2.1-0.3-3.7
		l0.5-3.6c0.3-1.9,1-3.4,2.1-4.4s2.6-1.4,4.5-1.4h1.2c1.3,0,2.9,0.2,3.9,1.3c0.8,1,1,2.3,0.8,4.3L45.5,24.8z M41.6,11.6h-1.2
		C32,11.7,27.6,14.9,26.7,21l-0.5,4c-0.4,2.7,0.2,4.8,1.6,6.3c1.8,1.8,4.9,3.2,9.6,3.2h1.2c8.2-0.1,12.6-3.2,13.6-8.9l0.1-0.4l0.6-4
		c0.4-2.8-0.2-5-1.7-6.5C49.4,12.9,46.3,11.7,41.6,11.6"/>
	<path class="st0" d="M112.9,24.8c-0.2,1.6-0.7,2.8-1.5,3.8c-1.1,1.2-2.6,2-4.8,2h-1.3c-2.2,0-3.8-0.7-4.5-1.8
		c-0.4-0.9-0.6-2.1-0.3-3.7l0.5-3.6c0.3-1.9,0.9-3.4,2.1-4.4c1.1-1,2.6-1.4,4.4-1.4h1.2c1.3,0,3,0.2,3.9,1.3c0.8,1,1,2.3,0.8,4.3
		L112.9,24.8z M109.1,11.6h-1.2c-8.4,0.1-12.8,3.3-13.7,9.4l-0.6,4c-0.3,2.7,0.2,4.8,1.6,6.3c1.8,1.8,4.9,3.2,9.6,3.2h1.2
		c8.2-0.1,12.6-3.2,13.6-8.9l0,0l0.1-0.4l0.6-4c0.4-2.8-0.2-5-1.7-6.5C116.9,12.9,113.8,11.7,109.1,11.6"/>
	<path class="st0" d="M175.5,24.8c-0.2,1.6-0.7,2.8-1.5,3.8c-1,1.2-2.6,2-4.8,2h-1.3c-2.2,0-3.8-0.7-4.5-1.8
		c-0.5-0.9-0.6-2.1-0.3-3.7l0.5-3.6c0.3-1.9,1-3.4,2.1-4.4s2.6-1.4,4.5-1.4h1.2c1.3,0,3,0.2,3.9,1.3c0.8,1,1,2.3,0.8,4.3L175.5,24.8
		z M181.2,14.7c-1.8-1.8-4.9-3.1-9.6-3.1h-1.2c-8.4,0.1-12.7,3.3-13.7,9.4l-0.6,4c-0.3,2.7,0.2,4.8,1.6,6.3c1.8,1.8,4.9,3.2,9.6,3.2
		h1.2c8.2-0.1,12.6-3.2,13.6-8.9l0,0l0.1-0.4l0.6-4C183.3,18.4,182.7,16.3,181.2,14.7"/>
	<path class="st0" d="M130.2,18.4l0.7,0.1c0.8,0.1,1.3,0.5,1.6,0.8c0.6,0.6,0.9,1.5,0.7,2.4l-0.9,6.6l0,0l-0.2,1.7v0.1l0,0l0,0h4
		c0.2,0,0.6,0,1-0.1c1.8-0.2,4.7-0.9,5.6-3l0.1-0.2c0.2-0.6,0.3-1.2,0.4-1.8l0.3-2.3l0,0l0.2-1.1c0.1-0.9,0.1-1.7,0-2.5
		c-0.3-2.1-3.1-2.8-4.8-3c-0.4,0-0.7-0.1-1-0.1h-7.1c-1-0.1-1.6-0.2-1.9-0.4c-0.8-0.6-1.3-1.5-1.3-2.8v-0.7h10.7
		c5.3,0.1,8.8,1,10.7,3c1.4,1.5,2,3.5,1.6,6.1l-0.2,1.4l-0.3,2.2l-0.1,1.1c-0.3,1.4-0.7,2.6-1.3,3.6c-0.7,1.1-1.6,2-2.8,2.7
		c-0.4,0.2-0.8,0.4-1.3,0.6c-0.9,0.4-2,0.7-3.2,0.9c-0.4,0.1-0.9,0.1-1.6,0.2C139,34,138,34,136.9,34h-8.2c-1.8,0-2.8-0.3-3.4-0.9
		l-0.3-0.4c-0.2-0.3-0.3-0.8-0.2-1.3l0.9-6.1l0.9-7h3.6V18.4z"/>
	<path class="st0" d="M22,30h-9.5l0,0c-1.3,0-2.3-0.1-3.1-0.3c-0.8-0.2-1.4-0.5-1.8-1C7.2,28.4,7,28,6.9,27.6v-0.1l-0.1-0.7
		c0-0.5,0-1.2,0.1-1.9l0.5-3.4c0.1-0.4,0.1-0.7,0.2-1.1L7.7,20l0,0L8,19.2L8.1,19l0.4-0.6l0.4-0.5c0.5-0.6,1.3-1,2.2-1.4
		c0.9-0.3,2.2-0.5,3.7-0.5h5.3l0,0c1-0.1,1.6-0.2,2.1-0.5s0.9-0.7,1.3-1.1l0.2-0.2c0.3-0.4,0.5-0.9,0.7-1.5l0.2-0.7H13.8
		c-1.2,0-2.3,0.1-3.3,0.2C4.6,13,1.4,16,0.6,21l-0.5,4c-0.3,2.6,0.2,4.6,1.6,6c1.6,1.7,4.4,2.8,8.5,3h7.2c1-0.1,1.9-0.1,2.3-0.4
		c0.6-0.3,1.1-0.9,1.5-1.5l0.3-0.5C21.5,31.7,21.8,30.9,22,30"/>
	<path class="st0" d="M64.9,30.5v0.3c-0.1,0.9-0.6,1.8-1.4,2.4C63,33.6,62.1,34,60.9,34h-3.6l0.3-2.5l0.1-1l2.4-18.4H63
		c1.9,0,3.1,0.4,3.7,1.3l6.5,9.5l9.2-9.6c0.8-0.8,2.1-1.2,3.9-1.2h3L87,30.5v0.3c-0.1,0.9-0.6,1.8-1.4,2.4c-0.5,0.4-1.3,0.9-2.5,0.9
		h-3.4l1.7-12.8l-7.2,8.4c-0.2,0.2-0.9,0.9-1.7,0.9h-0.1c-0.8,0-1.3-0.7-1.6-1L66,21.3L64.9,30.5z"/>
</g>
</svg>
