<?xml version="1.0" encoding="UTF-8"?>
<svg id="Layer_1" xmlns="http://www.w3.org/2000/svg" width="330" height="246" version="1.1" viewBox="0 0 330 246">
  <!-- Generator: Adobe Illustrator 29.2.1, SVG Export Plug-In . SVG Version: 2.1.0 Build 116)  -->
  <defs>
    <style>
      .st0 {
        fill: #355eab;
      }

      .st1 {
        fill: #474748;
      }

      .st2 {
        fill: #091314;
      }

      .st3 {
        fill: #fff;
      }

      .st4 {
        opacity: .3;
      }

      .st5 {
        opacity: .2;
      }

      .st6 {
        fill: #7e7e7e;
      }

      .st7 {
        fill: #7d7d7d;
      }

      .st8 {
        fill: #216272;
      }

      .st9 {
        fill: #e1e4e2;
      }

      .st10 {
        fill: #515250;
      }
    </style>
  </defs>
  <rect class="st8" x="0" width="330" height="246" rx="4" ry="4"/>
  <rect class="st3" x="4" y="29.964" width="322" height="212.036" rx="2" ry="2"/>
  <g class="st5">
    <rect class="st2" x="44" y="4" width="282" height="22" rx="11" ry="11"/>
  </g>
  <path class="st3" d="M24.823,15.164c.043-.105.043-.223,0-.327-.022-.053-.053-.1-.093-.14l-2.571-2.571c-.167-.167-.439-.167-.606,0s-.167.439,0,.606l1.84,1.84h-4.965c-.237,0-.429.192-.429.429s.192.429.429.429h4.965l-1.84,1.84c-.167.167-.167.439,0,.606.084.084.193.126.303.126s.219-.042.303-.126l2.571-2.571c.04-.04.071-.087.093-.14Z"/>
  <path class="st3" d="M5.175,15.164c-.043-.105-.043-.223,0-.327.022-.053.053-.1.093-.14l2.571-2.571c.167-.167.439-.167.606,0s.167.439,0,.606l-1.84,1.84h4.965c.237,0,.429.192.429.429,0,.237-.192.429-.429.429h-4.965s1.84,1.84,1.84,1.84c.167.167.167.439,0,.606-.084.084-.193.126-.303.126s-.219-.042-.303-.126l-2.571-2.571c-.04-.04-.071-.087-.093-.14Z"/>
  <path class="st3" d="M35.694,14.158c0,.184.149.333.333.333h1.667c.184,0,.333-.149.333-.333v-1.667c0-.184-.149-.333-.333-.333s-.333.149-.333.333v.774c-.721-.886-1.918-1.312-3.08-1.013-1.193.307-2.067,1.294-2.227,2.515-.104.794.107,1.582.595,2.218.488.635,1.194,1.043,1.989,1.147.132.017.263.026.392.026,1.482,0,2.774-1.102,2.972-2.61.024-.182-.105-.35-.287-.374-.183-.024-.35.104-.374.287-.167,1.276-1.339,2.178-2.617,2.01-.618-.081-1.167-.398-1.547-.892-.38-.494-.544-1.107-.463-1.725.125-.95.804-1.718,1.732-1.956.963-.247,1.958.144,2.501.926h-.92c-.184,0-.333.149-.333.333Z"/>
  <g>
    <g class="st4">
      <circle cx="55" cy="15" r="9"/>
    </g>
    <g>
      <path class="st3" d="M58,18c-.709,0-1.286-.577-1.286-1.286s.577-1.286,1.286-1.286,1.286.577,1.286,1.286-.577,1.286-1.286,1.286ZM58,16.286c-.236,0-.429.192-.429.429s.192.429.429.429.429-.192.429-.429-.192-.429-.429-.429Z"/>
      <path class="st3" d="M52,14.571c-.709,0-1.286-.577-1.286-1.286s.577-1.286,1.286-1.286,1.286.577,1.286,1.286-.577,1.286-1.286,1.286ZM52,12.857c-.236,0-.429.192-.429.429s.192.429.429.429.429-.192.429-.429-.192-.429-.429-.429Z"/>
      <path class="st3" d="M58.428,12.857h-4.285c-.237,0-.429.192-.429.429s.192.429.429.429h4.285c.237,0,.429-.192.429-.429s-.192-.429-.429-.429Z"/>
      <path class="st3" d="M55.857,16.286h-4.285c-.237,0-.429.192-.429.429s.192.429.429.429h4.285c.237,0,.429-.192.429-.429s-.192-.429-.429-.429Z"/>
    </g>
  </g>
  <g>
    <path class="st3" d="M72.385,13.639c.211-.297.468-.527.771-.691s.638-.246,1.005-.246c.672,0,1.196.212,1.573.636s.565,1.077.565,1.96v3.861h-1.424v-3.873c0-.5-.1-.861-.299-1.084s-.498-.334-.896-.334c-.277,0-.526.058-.747.173s-.403.274-.548.478v4.641h-1.424v-9.141h1.424v3.621Z"/>
    <path class="st3" d="M79.545,11.278v1.541h1.137v1.055h-1.137v3.504c0,.262.057.448.17.56s.264.167.451.167c.078,0,.154-.007.229-.021s.145-.032.211-.056l.152,1.043c-.121.066-.266.118-.434.155s-.342.056-.521.056c-.523,0-.934-.153-1.23-.46s-.445-.788-.445-1.444v-3.504h-.967v-1.055h.967v-1.541h1.418Z"/>
    <path class="st3" d="M83.717,11.278v1.541h1.137v1.055h-1.137v3.504c0,.262.057.448.17.56s.264.167.451.167c.078,0,.154-.007.229-.021s.145-.032.211-.056l.152,1.043c-.121.066-.266.118-.434.155s-.342.056-.521.056c-.523,0-.934-.153-1.23-.46s-.445-.788-.445-1.444v-3.504h-.967v-1.055h.967v-1.541h1.418Z"/>
    <path class="st3" d="M91.674,16.199c0,.922-.217,1.666-.65,2.232s-1.037.85-1.811.85c-.359,0-.678-.064-.955-.193s-.516-.318-.715-.568v3.076h-1.424v-8.777h1.201l.141.797c.203-.297.448-.523.735-.68s.62-.234.999-.234c.781,0,1.39.31,1.825.929s.653,1.435.653,2.446v.123ZM90.256,16.073c0-.647-.122-1.178-.366-1.589s-.608-.617-1.093-.617c-.297,0-.549.063-.756.189-.207.127-.373.304-.498.53v2.861c.125.222.291.393.498.512s.463.179.768.179c.484,0,.847-.179,1.087-.535.24-.357.36-.826.36-1.408v-.122Z"/>
    <path class="st3" d="M96.479,17.436c0-.219-.094-.4-.281-.545s-.537-.271-1.049-.381c-.758-.16-1.331-.388-1.72-.683s-.583-.696-.583-1.204c0-.531.225-.984.674-1.359s1.041-.562,1.775-.562c.773,0,1.388.19,1.843.571s.673.853.653,1.415l-.012.035h-1.365c0-.262-.1-.486-.299-.674s-.473-.281-.82-.281c-.344,0-.605.077-.785.231s-.27.343-.27.565.085.399.255.53.515.247,1.034.349c.797.164,1.388.396,1.772.694s.577.706.577,1.222c0,.57-.235,1.033-.706,1.389s-1.091.533-1.86.533c-.824,0-1.475-.211-1.951-.633s-.703-.906-.68-1.453l.012-.035h1.324c.016.367.148.635.398.803s.555.252.914.252c.367,0,.65-.07.85-.211s.299-.33.299-.568Z"/>
    <path class="st3" d="M100.721,14.026h-1.418v-1.365h1.418v1.365ZM100.721,19.158h-1.418v-1.365h1.418v1.365Z"/>
    <path class="st3" d="M102.941,19.891h-1.307l3.357-9.264h1.307l-3.357,9.264Z"/>
    <path class="st3" d="M107.857,19.891h-1.307l3.357-9.264h1.307l-3.357,9.264Z"/>
    <path class="st3" d="M117.783,17.33l.035-.006.99-4.506h1.365l-1.734,6.34h-1.166l-1.348-4.33-.012-.059-.006.059-1.336,4.33h-1.166l-1.734-6.34h1.365l1.014,4.441.035.006,1.318-4.447h1.037l1.342,4.512Z"/>
    <path class="st3" d="M126.748,17.33l.035-.006.99-4.506h1.365l-1.734,6.34h-1.166l-1.348-4.33-.012-.059-.006.059-1.336,4.33h-1.166l-1.734-6.34h1.365l1.014,4.441.035.006,1.318-4.447h1.037l1.342,4.512Z"/>
    <path class="st3" d="M135.713,17.33l.035-.006.99-4.506h1.365l-1.734,6.34h-1.166l-1.348-4.33-.012-.059-.006.059-1.336,4.33h-1.166l-1.734-6.34h1.365l1.014,4.441.035.006,1.318-4.447h1.037l1.342,4.512Z"/>
    <path class="st3" d="M140.084,19.158h-1.418v-1.365h1.418v1.365Z"/>
    <path class="st3" d="M141.607,16.076c0-1.012.217-1.827.65-2.446s1.043-.929,1.828-.929c.344,0,.651.069.923.208s.507.337.706.595v-3.486h1.424v9.141h-1.195l-.141-.785c-.203.297-.447.522-.732.677s-.617.231-.996.231c-.777,0-1.383-.283-1.816-.85s-.65-1.311-.65-2.232v-.123ZM143.031,16.199c0,.586.112,1.053.337,1.4s.581.521,1.069.521c.301,0,.556-.064.765-.193s.38-.312.513-.551v-2.766c-.133-.234-.305-.417-.516-.548s-.461-.196-.75-.196c-.484,0-.842.204-1.072.612s-.346.94-.346,1.597v.123Z"/>
    <path class="st3" d="M148.404,15.93c0-.941.258-1.715.773-2.32.523-.605,1.232-.908,2.127-.908.91,0,1.623.303,2.139.908.52.602.779,1.375.779,2.32v.123c0,.953-.26,1.73-.779,2.332-.516.598-1.225.896-2.127.896s-1.619-.301-2.139-.902c-.516-.602-.773-1.377-.773-2.326v-.123ZM149.828,16.05c0,.616.121,1.119.363,1.51.238.386.613.579,1.125.579.496,0,.867-.193,1.113-.579.25-.391.375-.894.375-1.51v-.123c0-.604-.125-1.103-.375-1.492-.246-.394-.621-.591-1.125-.591-.496,0-.867.197-1.113.591-.242.394-.363.892-.363,1.492v.123Z"/>
    <path class="st3" d="M156.766,12.819l.076.826c.207-.301.467-.533.779-.697s.674-.246,1.084-.246c.414,0,.77.094,1.066.281s.52.469.668.844c.195-.352.453-.627.773-.826s.695-.299,1.125-.299c.637,0,1.14.218,1.509.653s.554,1.097.554,1.983v3.82h-1.424v-3.826c0-.539-.093-.918-.278-1.137s-.464-.328-.835-.328c-.305,0-.562.082-.773.246s-.363.385-.457.662c0,.059.002.109.006.152s.006.084.006.123v4.107h-1.424v-3.826c0-.52-.095-.894-.284-1.122s-.468-.343-.835-.343c-.289,0-.534.056-.735.167s-.36.269-.478.472v4.652h-1.424v-6.34h1.301Z"/>
    <path class="st3" d="M169.715,19.158c-.051-.16-.093-.316-.126-.469s-.056-.305-.067-.457c-.195.297-.452.546-.771.747s-.675.302-1.069.302c-.66,0-1.167-.17-1.521-.51s-.53-.807-.53-1.4c0-.613.242-1.091.727-1.433s1.166-.513,2.045-.513h1.107v-.557c0-.332-.098-.592-.293-.779s-.475-.281-.838-.281c-.324,0-.582.078-.773.234s-.287.357-.287.604h-1.371l-.006-.035c-.027-.5.196-.943.671-1.33s1.093-.58,1.854-.58c.738,0,1.334.188,1.787.562s.68.914.68,1.617v2.818c0,.262.018.513.053.753s.092.476.17.706h-1.441ZM167.969,18.139c.359,0,.683-.09.97-.27s.478-.385.571-.615v-.938h-1.131c-.414,0-.738.103-.973.308s-.352.446-.352.724c0,.242.079.435.237.577s.384.214.677.214Z"/>
    <path class="st3" d="M173.945,11.266h-1.424v-1.248h1.424v1.248ZM173.945,19.158h-1.424v-6.34h1.424v6.34Z"/>
    <path class="st3" d="M176.828,12.819l.082.914c.207-.324.468-.577.782-.759s.669-.272,1.063-.272c.66,0,1.175.2,1.544.601s.554,1.024.554,1.872v3.984h-1.424v-3.973c0-.477-.099-.815-.296-1.017s-.497-.302-.899-.302c-.277,0-.525.062-.744.185s-.398.292-.539.507v4.6h-1.424v-6.34h1.301Z"/>
    <path class="st3" d="M183.9,19.158h-1.418v-1.365h1.418v1.365Z"/>
    <path class="st3" d="M188.307,18.139c.348,0,.641-.103.879-.306.238-.204.357-.46.357-.767h1.289l.012.035c.02.594-.222,1.105-.724,1.535s-1.106.645-1.813.645c-.934,0-1.649-.301-2.147-.902s-.747-1.363-.747-2.285v-.205c0-.918.249-1.679.747-2.282s1.214-.905,2.147-.905c.762,0,1.38.222,1.854.665s.704,1.007.688,1.69l-.012.035h-1.295c0-.348-.114-.643-.343-.885s-.526-.363-.894-.363c-.535,0-.914.194-1.137.582-.223.389-.334.875-.334,1.46v.205c0,.597.111,1.087.334,1.472.223.384.602.576,1.137.576Z"/>
    <path class="st3" d="M191.723,15.93c0-.941.258-1.715.773-2.32.523-.605,1.232-.908,2.127-.908.91,0,1.623.303,2.139.908.52.602.779,1.375.779,2.32v.123c0,.953-.26,1.73-.779,2.332-.516.598-1.225.896-2.127.896s-1.619-.301-2.139-.902c-.516-.602-.773-1.377-.773-2.326v-.123ZM193.146,16.05c0,.616.121,1.119.363,1.51.238.386.613.579,1.125.579.496,0,.867-.193,1.113-.579.25-.391.375-.894.375-1.51v-.123c0-.604-.125-1.103-.375-1.492-.246-.394-.621-.591-1.125-.591-.496,0-.867.197-1.113.591-.242.394-.363.892-.363,1.492v.123Z"/>
    <path class="st3" d="M200.084,12.819l.076.826c.207-.301.467-.533.779-.697s.674-.246,1.084-.246c.414,0,.77.094,1.066.281s.52.469.668.844c.195-.352.453-.627.773-.826s.695-.299,1.125-.299c.637,0,1.14.218,1.509.653s.554,1.097.554,1.983v3.82h-1.424v-3.826c0-.539-.093-.918-.278-1.137s-.464-.328-.835-.328c-.305,0-.562.082-.773.246s-.363.385-.457.662c0,.059.002.109.006.152s.006.084.006.123v4.107h-1.424v-3.826c0-.52-.095-.894-.284-1.122s-.468-.343-.835-.343c-.289,0-.534.056-.735.167s-.36.269-.478.472v4.652h-1.424v-6.34h1.301Z"/>
  </g>
  <g>
    <rect class="st3" x="13" y="30.444" width="303.111" height="204.889" rx="4" ry="4"/>
    <path class="st9" d="M312.111,236.333H17c-2.757,0-5-2.243-5-5V34.444c0-2.757,2.243-5,5-5h295.111c2.757,0,5,2.243,5,5v196.889c0,2.757-2.243,5-5,5ZM17,31.444c-1.654,0-3,1.346-3,3v196.889c0,1.654,1.346,3,3,3h295.111c1.654,0,3-1.346,3-3V34.444c0-1.654-1.346-3-3-3H17Z"/>
  </g>
  <polygon class="st9" points="51.714 29.964 54.714 24.964 57.714 29.964 51.714 29.964"/>
  <rect class="st9" x="14" y="82.556" width="301.111" height="1"/>
  <path class="st8" d="M46.547,68.806c-8.007,0-14.521-6.514-14.521-14.521s6.514-14.521,14.521-14.521,14.52,6.514,14.52,14.521-6.514,14.521-14.52,14.521ZM46.547,40.765c-7.455,0-13.521,6.065-13.521,13.521s6.065,13.521,13.521,13.521,13.52-6.065,13.52-13.521-6.064-13.521-13.52-13.521Z"/>
  <path class="st1" d="M40.38,54.583c-.079-.19-.079-.404,0-.595.04-.096.097-.182.169-.254l4.67-4.67c.304-.304.797-.304,1.101,0s.304.797,0,1.101l-3.341,3.341h9.018c.43,0,.778.349.778.778s-.349.778-.778.778h-9.018s3.341,3.341,3.341,3.341c.304.304.304.797,0,1.101-.152.152-.351.228-.55.228s-.398-.076-.55-.228l-4.67-4.67c-.072-.072-.129-.158-.169-.254Z"/>
  <g>
    <path class="st10" d="M75.708,55.043c0-.472-.176-.858-.527-1.159s-.973-.57-1.863-.809c-1.271-.333-2.249-.774-2.934-1.324-.685-.55-1.027-1.27-1.027-2.16,0-.917.379-1.672,1.137-2.266s1.735-.891,2.934-.891c1.25,0,2.254.337,3.012,1.012s1.124,1.483,1.098,2.426l-.016.047h-1.82c0-.583-.198-1.056-.594-1.418-.396-.362-.961-.543-1.695-.543-.693,0-1.226.15-1.598.452-.373.302-.559.691-.559,1.169,0,.432.202.79.605,1.076.403.285,1.071.556,2.004.811,1.224.328,2.153.781,2.789,1.359.635.578.953,1.315.953,2.211,0,.948-.379,1.702-1.137,2.262s-1.754.84-2.988.84c-1.188,0-2.229-.316-3.125-.949-.896-.633-1.331-1.496-1.305-2.59l.016-.047h1.828c0,.692.239,1.21.719,1.551.479.341,1.102.512,1.867.512.703,0,1.25-.142,1.641-.424.391-.283.586-.665.586-1.147Z"/>
    <path class="st10" d="M82.989,58.138c-1.198,0-2.152-.392-2.863-1.176s-1.066-1.79-1.066-3.02v-.312c0-1.229.353-2.249,1.059-3.059.706-.81,1.59-1.212,2.652-1.207,1.141,0,2.014.345,2.621,1.035.606.69.91,1.616.91,2.777v1.117h-5.273l-.016.039c.031.669.228,1.217.59,1.643.362.426.863.639,1.504.639.51,0,.948-.062,1.312-.188.364-.125.716-.305,1.055-.539l.609,1.245c-.318.282-.74.521-1.266.714-.526.194-1.136.291-1.828.291ZM82.77,50.888c-.469,0-.854.187-1.156.559-.302.372-.49.845-.562,1.418l.016.039h3.352v-.195c0-.536-.137-.974-.41-1.312s-.687-.508-1.238-.508Z"/>
    <path class="st10" d="M91.325,56.614c.463,0,.854-.136,1.172-.408.317-.271.477-.612.477-1.021h1.719l.016.047c.026.792-.296,1.474-.965,2.047-.669.573-1.476.859-2.418.859-1.245,0-2.199-.401-2.863-1.203s-.996-1.817-.996-3.047v-.273c0-1.224.332-2.238.996-3.043s1.618-1.207,2.863-1.207c1.016,0,1.84.296,2.473.887s.938,1.343.918,2.254l-.016.047h-1.727c0-.464-.152-.856-.457-1.18s-.702-.484-1.191-.484c-.714,0-1.219.259-1.516.776s-.445,1.166-.445,1.946v.273c0,.796.148,1.449.445,1.962s.802.769,1.516.769Z"/>
    <path class="st10" d="M101.497,56.739c-.266.448-.602.793-1.008,1.035s-.875.363-1.406.363c-.906,0-1.615-.289-2.125-.867-.511-.578-.766-1.477-.766-2.695v-5.055h1.891v5.07c0,.739.12,1.258.359,1.555.239.297.602.445,1.086.445.458,0,.842-.082,1.152-.246.31-.164.553-.402.73-.715v-6.109h1.898v8.453h-1.656l-.156-1.234Z"/>
    <path class="st10" d="M109.504,51.232l-.812-.031c-.37,0-.679.078-.926.234-.248.156-.439.378-.574.664v5.875h-1.898v-8.453h1.734l.125,1.227c.213-.433.488-.771.824-1.016s.723-.367,1.16-.367c.114,0,.221.009.32.027.099.019.19.04.273.066l-.227,1.773Z"/>
    <path class="st10" d="M112.856,47.45h-1.898v-1.664h1.898v1.664ZM112.856,57.974h-1.898v-8.453h1.898v8.453Z"/>
    <path class="st10" d="M117.34,47.466v2.055h1.516v1.406h-1.516v4.672c0,.349.075.598.227.746.151.148.352.223.602.223.104,0,.206-.009.305-.027.099-.019.192-.043.281-.074l.203,1.391c-.162.089-.354.157-.578.207-.224.049-.456.074-.695.074-.698,0-1.245-.204-1.641-.613-.396-.409-.594-1.051-.594-1.926v-4.672h-1.289v-1.406h1.289v-2.055h1.891Z"/>
    <path class="st10" d="M123.348,54.583l.188.844h.047l1.852-5.906h2.078l-3.5,9.734c-.224.588-.539,1.091-.945,1.508-.406.416-.982.625-1.727.625-.156,0-.324-.016-.504-.047s-.353-.068-.52-.109l.211-1.469c.067.005.164.013.289.023.125.01.219.016.281.016.344,0,.618-.117.824-.352.206-.234.374-.506.504-.812l.312-.766-3.07-8.352h2.07l1.609,5.062Z"/>
  </g>
  <g>
    <path class="st10" d="M71.97,114.89l.013.038c.017.936-.287,1.696-.911,2.282-.625.586-1.47.879-2.536.879-1.079,0-1.956-.362-2.631-1.088-.675-.727-1.013-1.654-1.013-2.784v-1.758c0-1.126.333-2.054,1-2.783.666-.73,1.533-1.096,2.599-1.096,1.092,0,1.952.287,2.581.86.628.573.934,1.345.917,2.313l-.013.038h-1.492c0-.622-.168-1.106-.504-1.453-.337-.348-.833-.521-1.489-.521-.63,0-1.131.249-1.501.748-.37.499-.555,1.125-.555,1.877v1.77c0,.762.189,1.392.568,1.89.379.499.89.749,1.533.749.639,0,1.124-.171,1.454-.513s.495-.825.495-1.449h1.485Z"/>
    <path class="st10" d="M73.011,114.458c0-1.02.279-1.857.838-2.514.567-.655,1.335-.983,2.304-.983.986,0,1.758.328,2.317.983.563.652.844,1.49.844,2.514v.134c0,1.032-.281,1.874-.844,2.526-.559.647-1.327.971-2.304.971s-1.754-.325-2.317-.978c-.559-.651-.838-1.491-.838-2.52v-.134ZM74.553,114.588c0,.668.131,1.213.394,1.636.258.419.665.628,1.219.628.538,0,.939-.209,1.206-.628.271-.423.406-.968.406-1.636v-.133c0-.655-.135-1.193-.406-1.616-.267-.427-.673-.641-1.219-.641-.538,0-.939.214-1.206.641-.262.427-.394.966-.394,1.616v.133Z"/>
    <path class="st10" d="M82.056,111.088l.089.99c.224-.352.507-.625.848-.822.34-.196.725-.295,1.152-.295.715,0,1.273.217,1.672.65.4.434.6,1.109.6,2.028v4.316h-1.542v-4.304c0-.517-.107-.884-.32-1.102-.214-.218-.539-.327-.975-.327-.3,0-.569.067-.806.2-.237.134-.432.316-.584.549v4.983h-1.542v-6.868h1.409Z"/>
    <path class="st10" d="M89.419,111.088l.089.99c.224-.352.507-.625.848-.822.34-.196.725-.295,1.152-.295.715,0,1.273.217,1.672.65.4.434.6,1.109.6,2.028v4.316h-1.542v-4.304c0-.517-.107-.884-.32-1.102-.214-.218-.539-.327-.975-.327-.3,0-.569.067-.806.2-.237.134-.432.316-.584.549v4.983h-1.542v-6.868h1.409Z"/>
    <path class="st10" d="M98.332,118.089c-.973,0-1.749-.318-2.326-.955-.578-.637-.867-1.455-.867-2.453v-.254c0-.999.287-1.827.86-2.485.574-.658,1.292-.985,2.155-.98.927,0,1.637.28,2.13.841.493.561.739,1.312.739,2.257v.907h-4.285l-.013.032c.025.544.185.988.479,1.335.294.346.702.519,1.222.519.415,0,.77-.051,1.066-.152s.582-.248.857-.438l.495,1.012c-.258.229-.601.423-1.028.581-.427.157-.922.235-1.485.235ZM98.154,112.198c-.381,0-.694.151-.939.454s-.398.687-.457,1.152l.013.031h2.723v-.158c0-.437-.111-.792-.333-1.066-.222-.275-.557-.413-1.006-.413Z"/>
    <path class="st10" d="M105.104,116.852c.376,0,.694-.11.952-.332.258-.221.387-.497.387-.83h1.396l.013.038c.021.644-.24,1.198-.784,1.663-.543.466-1.198.698-1.964.698-1.011,0-1.787-.325-2.327-.978-.539-.651-.809-1.477-.809-2.476v-.222c0-.995.27-1.818.809-2.473.54-.653,1.315-.98,2.327-.98.825,0,1.495.24,2.009.721.514.479.763,1.09.746,1.831l-.013.038h-1.403c0-.377-.124-.696-.371-.959-.248-.262-.57-.394-.968-.394-.58,0-.99.211-1.231.631-.241.421-.362.948-.362,1.582v.222c0,.646.121,1.178.362,1.594.241.417.652.625,1.231.625Z"/>
    <path class="st10" d="M111.008,109.418v1.67h1.231v1.143h-1.231v3.796c0,.283.062.485.184.606.123.12.286.181.489.181.084,0,.167-.008.248-.022s.157-.035.229-.061l.165,1.13c-.131.072-.288.128-.47.169-.182.04-.37.06-.565.06-.567,0-1.011-.166-1.333-.498s-.482-.854-.482-1.564v-3.796h-1.047v-1.143h1.047v-1.67h1.536Z"/>
    <path class="st10" d="M115.254,109.405h-1.542v-1.352h1.542v1.352ZM115.254,117.956h-1.542v-6.868h1.542v6.868Z"/>
    <path class="st10" d="M116.695,114.458c0-1.02.279-1.857.838-2.514.567-.655,1.335-.983,2.304-.983.986,0,1.758.328,2.317.983.563.652.844,1.49.844,2.514v.134c0,1.032-.281,1.874-.844,2.526-.559.647-1.327.971-2.304.971s-1.754-.325-2.317-.978c-.559-.651-.838-1.491-.838-2.52v-.134ZM118.238,114.588c0,.668.131,1.213.394,1.636.258.419.665.628,1.219.628.538,0,.939-.209,1.206-.628.271-.423.406-.968.406-1.636v-.133c0-.655-.135-1.193-.406-1.616-.267-.427-.673-.641-1.219-.641-.538,0-.939.214-1.206.641-.262.427-.394.966-.394,1.616v.133Z"/>
    <path class="st10" d="M125.741,111.088l.089.99c.224-.352.507-.625.848-.822.34-.196.725-.295,1.152-.295.715,0,1.273.217,1.672.65.4.434.6,1.109.6,2.028v4.316h-1.542v-4.304c0-.517-.107-.884-.32-1.102-.214-.218-.539-.327-.975-.327-.3,0-.569.067-.806.2-.237.134-.432.316-.584.549v4.983h-1.542v-6.868h1.409Z"/>
    <path class="st10" d="M136.589,109.405h-1.542v-1.352h1.542v1.352ZM136.589,117.956h-1.542v-6.868h1.542v6.868Z"/>
    <path class="st10" d="M142.175,116.09c0-.237-.102-.434-.305-.591-.203-.156-.582-.294-1.136-.412-.821-.174-1.442-.42-1.863-.739-.421-.32-.632-.755-.632-1.305,0-.576.243-1.066.73-1.473s1.128-.609,1.923-.609c.838,0,1.503.206,1.996.619.493.412.729.923.708,1.532l-.013.038h-1.479c0-.283-.108-.526-.324-.729s-.512-.305-.889-.305c-.373,0-.656.083-.851.251-.195.167-.292.371-.292.612s.092.433.276.574c.184.142.557.268,1.12.378.863.178,1.503.429,1.92.752.417.324.625.765.625,1.323,0,.618-.255,1.119-.765,1.505-.51.385-1.182.577-2.015.577-.893,0-1.598-.229-2.114-.686s-.762-.981-.736-1.574l.013-.038h1.435c.017.398.161.688.432.87.271.182.601.272.99.272.398,0,.705-.076.92-.229s.324-.357.324-.615Z"/>
    <path class="st10" d="M152.172,116.09c0-.237-.102-.434-.305-.591-.203-.156-.582-.294-1.136-.412-.821-.174-1.442-.42-1.863-.739-.421-.32-.632-.755-.632-1.305,0-.576.243-1.066.73-1.473s1.128-.609,1.923-.609c.838,0,1.503.206,1.996.619.493.412.729.923.708,1.532l-.013.038h-1.479c0-.283-.108-.526-.324-.729s-.512-.305-.889-.305c-.373,0-.656.083-.851.251-.195.167-.292.371-.292.612s.092.433.276.574c.184.142.557.268,1.12.378.863.178,1.503.429,1.92.752.417.324.625.765.625,1.323,0,.618-.255,1.119-.765,1.505-.51.385-1.182.577-2.015.577-.893,0-1.598-.229-2.114-.686s-.762-.981-.736-1.574l.013-.038h1.435c.017.398.161.688.432.87.271.182.601.272.99.272.398,0,.705-.076.92-.229s.324-.357.324-.615Z"/>
    <path class="st10" d="M158.019,118.089c-.973,0-1.749-.318-2.326-.955-.578-.637-.867-1.455-.867-2.453v-.254c0-.999.287-1.827.86-2.485.574-.658,1.292-.985,2.155-.98.927,0,1.637.28,2.13.841.493.561.739,1.312.739,2.257v.907h-4.285l-.013.032c.025.544.185.988.479,1.335.294.346.702.519,1.222.519.415,0,.77-.051,1.066-.152s.582-.248.857-.438l.495,1.012c-.258.229-.601.423-1.028.581-.427.157-.922.235-1.485.235ZM157.841,112.198c-.381,0-.694.151-.939.454s-.398.687-.457,1.152l.013.031h2.723v-.158c0-.437-.111-.792-.333-1.066-.222-.275-.557-.413-1.006-.413Z"/>
    <path class="st10" d="M164.792,116.852c.376,0,.694-.11.952-.332.258-.221.387-.497.387-.83h1.396l.013.038c.021.644-.24,1.198-.784,1.663-.543.466-1.198.698-1.964.698-1.011,0-1.787-.325-2.327-.978-.539-.651-.809-1.477-.809-2.476v-.222c0-.995.27-1.818.809-2.473.54-.653,1.315-.98,2.327-.98.825,0,1.495.24,2.009.721.514.479.763,1.09.746,1.831l-.013.038h-1.403c0-.377-.124-.696-.371-.959-.248-.262-.57-.394-.968-.394-.58,0-.99.211-1.231.631-.241.421-.362.948-.362,1.582v.222c0,.646.121,1.178.362,1.594.241.417.652.625,1.231.625Z"/>
    <path class="st10" d="M173.057,116.953c-.216.363-.489.645-.819.841-.33.197-.711.295-1.143.295-.736,0-1.312-.234-1.727-.704-.414-.47-.622-1.2-.622-2.19v-4.106h1.536v4.119c0,.602.098,1.022.292,1.264.195.241.489.361.883.361.372,0,.685-.066.937-.199.251-.134.449-.327.593-.581v-4.964h1.543v6.868h-1.346l-.127-1.003Z"/>
    <path class="st10" d="M179.562,112.478l-.66-.025c-.3,0-.551.063-.752.19s-.356.307-.467.54v4.773h-1.542v-6.868h1.409l.102.996c.173-.351.396-.626.67-.825.272-.198.587-.298.942-.298.093,0,.18.007.26.022.081.015.154.032.223.054l-.185,1.44Z"/>
    <path class="st10" d="M183.587,118.089c-.973,0-1.748-.318-2.326-.955s-.866-1.455-.866-2.453v-.254c0-.999.286-1.827.86-2.485.573-.658,1.291-.985,2.154-.98.928,0,1.637.28,2.131.841.492.561.738,1.312.738,2.257v.907h-4.285l-.012.032c.025.544.186.988.479,1.335.295.346.701.519,1.223.519.414,0,.77-.051,1.066-.152s.582-.248.857-.438l.494,1.012c-.258.229-.6.423-1.027.581-.428.157-.924.235-1.486.235ZM183.409,112.198c-.381,0-.693.151-.939.454-.244.303-.396.687-.457,1.152l.014.031h2.723v-.158c0-.437-.111-.792-.334-1.066-.221-.275-.557-.413-1.006-.413Z"/>
  </g>
  <g>
    <path class="st10" d="M71.97,207.168l.013.038c.017.936-.287,1.696-.911,2.282-.625.586-1.47.879-2.536.879-1.079,0-1.956-.362-2.631-1.088-.675-.727-1.013-1.654-1.013-2.784v-1.758c0-1.126.333-2.054,1-2.783.666-.73,1.533-1.096,2.599-1.096,1.092,0,1.952.287,2.581.86.628.573.934,1.345.917,2.313l-.013.038h-1.492c0-.622-.168-1.106-.504-1.453-.337-.348-.833-.521-1.489-.521-.63,0-1.131.249-1.501.748-.37.499-.555,1.125-.555,1.877v1.77c0,.762.189,1.392.568,1.89.379.499.89.749,1.533.749.639,0,1.124-.171,1.454-.513s.495-.825.495-1.449h1.485Z"/>
    <path class="st10" d="M76.242,210.367c-.973,0-1.749-.318-2.326-.955-.578-.637-.867-1.455-.867-2.453v-.254c0-.999.287-1.827.86-2.485.574-.658,1.292-.985,2.155-.98.927,0,1.637.28,2.13.841.493.561.739,1.312.739,2.257v.907h-4.285l-.013.032c.025.544.185.988.479,1.335.294.346.702.519,1.222.519.415,0,.77-.051,1.066-.152s.582-.248.857-.438l.495,1.012c-.258.229-.601.423-1.028.581-.427.157-.922.235-1.485.235ZM76.064,204.477c-.381,0-.694.151-.939.454s-.398.687-.457,1.152l.013.031h2.723v-.158c0-.437-.111-.792-.333-1.066-.222-.275-.557-.413-1.006-.413Z"/>
    <path class="st10" d="M83.599,204.756l-.66-.025c-.3,0-.551.063-.752.19-.201.127-.356.307-.466.54v4.773h-1.542v-6.868h1.409l.102.996c.173-.351.396-.626.67-.825.272-.198.587-.298.942-.298.093,0,.18.007.26.022.081.015.154.032.222.054l-.184,1.44Z"/>
    <path class="st10" d="M86.728,201.697v1.67h1.231v1.143h-1.231v3.796c0,.283.062.485.184.606.123.12.286.181.489.181.084,0,.167-.008.248-.022s.157-.035.229-.061l.165,1.13c-.131.072-.288.128-.47.169-.182.04-.37.06-.565.06-.567,0-1.011-.166-1.333-.498s-.482-.854-.482-1.564v-3.796h-1.047v-1.143h1.047v-1.67h1.536Z"/>
    <path class="st10" d="M90.975,201.684h-1.542v-1.352h1.542v1.352ZM90.975,210.235h-1.542v-6.868h1.542v6.868Z"/>
    <path class="st10" d="M93.203,210.235v-5.726h-1.047v-1.143h1.047v-.8c0-.758.207-1.342.619-1.752.413-.411.992-.616,1.736-.616.148,0,.298.012.451.035s.324.056.514.099l-.159,1.193c-.084-.018-.179-.032-.283-.045-.104-.013-.214-.019-.333-.019-.334,0-.585.095-.752.285-.167.19-.251.464-.251.819v.8h1.396v1.143h-1.396v5.726h-1.542Z"/>
    <path class="st10" d="M98.909,201.684h-1.542v-1.352h1.542v1.352ZM98.909,210.235h-1.542v-6.868h1.542v6.868Z"/>
    <path class="st10" d="M103.473,209.13c.376,0,.694-.11.952-.332.258-.221.387-.497.387-.83h1.396l.013.038c.021.644-.24,1.198-.784,1.663-.543.466-1.198.698-1.964.698-1.011,0-1.787-.325-2.327-.978-.539-.651-.809-1.477-.809-2.476v-.222c0-.995.27-1.818.809-2.473.54-.653,1.315-.98,2.327-.98.825,0,1.495.24,2.009.721.514.479.763,1.09.746,1.831l-.013.038h-1.403c0-.377-.124-.696-.371-.959-.248-.262-.57-.394-.968-.394-.58,0-.99.211-1.231.631-.241.421-.362.948-.362,1.582v.222c0,.646.121,1.178.362,1.594.241.417.652.625,1.231.625Z"/>
    <path class="st10" d="M111.592,210.235c-.055-.174-.101-.343-.136-.508-.036-.165-.061-.33-.073-.495-.211.321-.49.591-.835.81-.345.218-.731.326-1.158.326-.715,0-1.264-.184-1.647-.552-.383-.368-.574-.874-.574-1.518,0-.664.262-1.182.787-1.552s1.263-.556,2.215-.556h1.2v-.603c0-.36-.106-.642-.317-.845s-.514-.305-.908-.305c-.351,0-.63.085-.838.254-.208.17-.311.388-.311.654h-1.485l-.006-.038c-.03-.542.212-1.022.727-1.441.514-.419,1.184-.628,2.009-.628.8,0,1.445.203,1.936.609s.736.99.736,1.752v3.053c0,.284.019.556.057.816.038.26.1.515.184.765h-1.562ZM109.7,209.13c.389,0,.74-.098,1.05-.292.312-.195.518-.417.619-.667v-1.016h-1.225c-.449,0-.8.111-1.054.334-.254.222-.381.483-.381.783,0,.263.085.471.257.626.171.154.416.231.733.231Z"/>
    <path class="st10" d="M116.448,201.697v1.67h1.231v1.143h-1.231v3.796c0,.283.062.485.184.606.123.12.286.181.489.181.084,0,.167-.008.248-.022s.157-.035.229-.061l.165,1.13c-.131.072-.288.128-.47.169-.182.04-.37.06-.565.06-.567,0-1.011-.166-1.333-.498s-.482-.854-.482-1.564v-3.796h-1.047v-1.143h1.047v-1.67h1.536Z"/>
    <path class="st10" d="M121.996,210.367c-.973,0-1.749-.318-2.326-.955-.578-.637-.867-1.455-.867-2.453v-.254c0-.999.287-1.827.86-2.485.574-.658,1.292-.985,2.155-.98.927,0,1.637.28,2.13.841.493.561.739,1.312.739,2.257v.907h-4.285l-.013.032c.025.544.185.988.479,1.335.294.346.702.519,1.222.519.415,0,.77-.051,1.066-.152s.582-.248.857-.438l.495,1.012c-.258.229-.601.423-1.028.581-.427.157-.922.235-1.485.235ZM121.818,204.477c-.381,0-.694.151-.939.454s-.398.687-.457,1.152l.013.031h2.723v-.158c0-.437-.111-.792-.333-1.066-.222-.275-.557-.413-1.006-.413Z"/>
    <path class="st10" d="M130.813,201.684h-1.542v-1.352h1.542v1.352ZM130.813,210.235h-1.542v-6.868h1.542v6.868Z"/>
    <path class="st10" d="M136.398,208.368c0-.237-.102-.434-.305-.591-.203-.156-.582-.294-1.136-.412-.821-.174-1.442-.42-1.863-.739-.421-.32-.632-.755-.632-1.305,0-.576.243-1.066.73-1.473s1.128-.609,1.923-.609c.838,0,1.503.206,1.996.619.493.412.729.923.708,1.532l-.013.038h-1.479c0-.283-.108-.526-.324-.729s-.512-.305-.889-.305c-.373,0-.656.083-.851.251-.195.167-.292.371-.292.612s.092.433.276.574c.184.142.557.268,1.12.378.863.178,1.503.429,1.92.752.417.324.625.765.625,1.323,0,.618-.255,1.119-.765,1.505-.51.385-1.182.577-2.015.577-.893,0-1.598-.229-2.114-.686s-.762-.981-.736-1.574l.013-.038h1.435c.017.398.161.688.432.87.271.182.601.272.99.272.398,0,.705-.076.92-.229s.324-.357.324-.615Z"/>
    <path class="st10" d="M144.923,207.911l.114.559h.038l.121-.559,1.365-4.545h1.593l-2.438,6.868h-1.339l-2.45-6.868h1.593l1.403,4.545Z"/>
    <path class="st10" d="M153.156,210.235c-.055-.174-.101-.343-.136-.508-.036-.165-.061-.33-.073-.495-.211.321-.49.591-.835.81-.345.218-.731.326-1.158.326-.715,0-1.264-.184-1.647-.552-.383-.368-.574-.874-.574-1.518,0-.664.262-1.182.787-1.552s1.263-.556,2.215-.556h1.2v-.603c0-.36-.106-.642-.317-.845s-.514-.305-.908-.305c-.351,0-.63.085-.838.254-.208.17-.311.388-.311.654h-1.485l-.006-.038c-.03-.542.212-1.022.727-1.441.514-.419,1.184-.628,2.009-.628.8,0,1.445.203,1.936.609s.736.99.736,1.752v3.053c0,.284.019.556.057.816.038.26.1.515.184.765h-1.562ZM151.265,209.13c.389,0,.74-.098,1.05-.292.312-.195.518-.417.619-.667v-1.016h-1.225c-.449,0-.8.111-1.054.334-.254.222-.381.483-.381.783,0,.263.085.471.257.626.171.154.416.231.733.231Z"/>
    <path class="st10" d="M157.739,210.235h-1.542v-9.902h1.542v9.902Z"/>
    <path class="st10" d="M161.11,201.684h-1.542v-1.352h1.542v1.352ZM161.11,210.235h-1.542v-6.868h1.542v6.868Z"/>
    <path class="st10" d="M162.551,206.896c0-1.097.235-1.979.705-2.65s1.13-1.006,1.98-1.006c.373,0,.706.075,1,.226.294.149.549.364.765.644v-3.776h1.542v9.902h-1.295l-.152-.851c-.22.321-.484.565-.793.733-.31.167-.669.25-1.08.25-.842,0-1.498-.307-1.968-.92-.47-.614-.705-1.42-.705-2.419v-.133ZM164.093,207.029c0,.635.122,1.141.365,1.518.243.376.629.564,1.158.564.326,0,.602-.069.829-.209s.411-.339.556-.597v-2.996c-.145-.254-.33-.452-.559-.594s-.5-.213-.813-.213c-.525,0-.912.222-1.162.664-.25.441-.375,1.019-.375,1.729v.133Z"/>
  </g>
  <g>
    <path class="st7" d="M69.529,69.144c0-.85.182-1.534.544-2.056.363-.521.872-.781,1.526-.781.309,0,.583.058.823.171.239.114.443.28.613.498v-2.905h.962v7.617h-.786l-.112-.649c-.172.247-.384.435-.635.562s-.542.19-.874.19c-.645,0-1.149-.233-1.514-.7-.365-.468-.547-1.082-.547-1.844v-.103ZM70.491,69.246c0,.534.109.961.327,1.282.218.32.557.48,1.016.48.287,0,.527-.065.723-.195.195-.131.355-.312.479-.547v-2.466c-.124-.218-.284-.392-.481-.52-.197-.129-.434-.193-.71-.193-.462,0-.803.19-1.023.571s-.33.876-.33,1.484v.103Z"/>
    <path class="st7" d="M75.208,68.997c0-.781.211-1.425.635-1.931.423-.507.998-.76,1.724-.76.732,0,1.311.253,1.736.757.425.505.637,1.149.637,1.934v.107c0,.788-.211,1.432-.635,1.934-.423.501-1,.752-1.729.752s-1.306-.251-1.731-.755c-.425-.503-.637-1.146-.637-1.931v-.107ZM76.17,69.103c0,.559.118,1.021.354,1.385s.587.546,1.052.546c.459,0,.807-.182,1.045-.546s.356-.826.356-1.385v-.107c0-.553-.12-1.013-.359-1.38-.239-.368-.59-.552-1.052-.552-.459,0-.807.184-1.042.552-.236.367-.354.827-.354,1.38v.107Z"/>
    <path class="st7" d="M81.976,66.405l.068.693c.172-.25.392-.445.657-.583.265-.139.574-.208.925-.208s.653.082.906.244c.252.163.442.407.569.732.166-.299.386-.537.659-.713s.592-.264.957-.264c.537,0,.962.185,1.274.555.312.369.469.925.469,1.667v3.159h-.962v-3.169c0-.521-.089-.89-.269-1.105-.179-.217-.446-.325-.801-.325-.329,0-.595.114-.798.342-.204.229-.323.517-.359.864v3.394h-.967v-3.169c0-.494-.092-.856-.276-1.086s-.448-.345-.793-.345c-.293,0-.534.061-.723.181-.189.121-.333.29-.435.508v3.911h-.962v-5.283h.859Z"/>
    <path class="st7" d="M93.104,71.688c-.033-.159-.058-.301-.076-.422-.018-.123-.028-.245-.032-.369-.179.254-.413.467-.701.637-.288.172-.598.257-.93.257-.55,0-.969-.141-1.257-.423-.288-.281-.432-.669-.432-1.164,0-.504.204-.899.613-1.184.409-.285.963-.428,1.663-.428h1.045v-.522c0-.309-.094-.554-.283-.734s-.456-.271-.801-.271c-.309,0-.561.079-.754.237-.194.157-.291.348-.291.568h-.918l-.01-.029c-.02-.384.162-.735.544-1.055.382-.318.876-.479,1.482-.479.599,0,1.081.152,1.445.457.365.304.547.743.547,1.315v2.544c0,.188.01.371.029.547s.055.349.107.518h-.991ZM91.507,70.98c.348,0,.663-.089.942-.268s.462-.383.547-.613v-.857h-1.079c-.387,0-.697.098-.93.292-.233.195-.349.424-.349.687,0,.234.073.419.22.556.146.136.363.204.649.204Z"/>
    <path class="st7" d="M96.395,65.052h-.962v-.981h.962v.981ZM96.395,71.688h-.962v-5.283h.962v5.283Z"/>
    <path class="st7" d="M98.733,66.405l.068.786c.176-.279.396-.497.662-.651.265-.155.567-.232.906-.232.57,0,1.011.167,1.323.501.312.333.469.849.469,1.545v3.335h-.962v-3.315c0-.465-.092-.796-.276-.991s-.465-.293-.842-.293c-.277,0-.521.067-.735.2-.213.134-.383.316-.51.547v3.853h-.962v-5.283h.859Z"/>
    <path class="st7" d="M104.417,66.405l.068.786c.176-.279.396-.497.662-.651.265-.155.567-.232.906-.232.57,0,1.011.167,1.323.501.312.333.469.849.469,1.545v3.335h-.962v-3.315c0-.465-.092-.796-.276-.991s-.465-.293-.842-.293c-.277,0-.521.067-.735.2-.213.134-.383.316-.51.547v3.853h-.962v-5.283h.859Z"/>
    <path class="st7" d="M112.488,71.688c-.033-.159-.058-.301-.076-.422-.018-.123-.028-.245-.032-.369-.179.254-.413.467-.701.637-.288.172-.598.257-.93.257-.55,0-.969-.141-1.257-.423-.288-.281-.432-.669-.432-1.164,0-.504.204-.899.613-1.184.409-.285.963-.428,1.663-.428h1.045v-.522c0-.309-.094-.554-.283-.734s-.456-.271-.801-.271c-.309,0-.561.079-.754.237-.194.157-.291.348-.291.568h-.918l-.01-.029c-.02-.384.162-.735.544-1.055.382-.318.876-.479,1.482-.479.599,0,1.081.152,1.445.457.365.304.547.743.547,1.315v2.544c0,.188.01.371.029.547s.055.349.107.518h-.991ZM110.892,70.98c.348,0,.663-.089.942-.268s.462-.383.547-.613v-.857h-1.079c-.387,0-.697.098-.93.292-.233.195-.349.424-.349.687,0,.234.073.419.22.556.146.136.363.204.649.204Z"/>
    <path class="st7" d="M115.599,66.405l.068.693c.172-.25.392-.445.657-.583.265-.139.574-.208.925-.208s.653.082.906.244c.252.163.442.407.569.732.166-.299.386-.537.659-.713s.592-.264.957-.264c.537,0,.962.185,1.274.555.312.369.469.925.469,1.667v3.159h-.962v-3.169c0-.521-.089-.89-.269-1.105-.179-.217-.446-.325-.801-.325-.329,0-.595.114-.798.342-.204.229-.323.517-.359.864v3.394h-.967v-3.169c0-.494-.092-.856-.276-1.086s-.448-.345-.793-.345c-.293,0-.534.061-.723.181-.189.121-.333.29-.435.508v3.911h-.962v-5.283h.859Z"/>
    <path class="st7" d="M125.672,71.79c-.736,0-1.321-.245-1.755-.735-.435-.489-.652-1.125-.652-1.906v-.215c0-.752.224-1.378.671-1.877.448-.5.978-.75,1.589-.75.713,0,1.251.215,1.616.645s.547,1.003.547,1.719v.601h-3.428l-.015.024c.01.507.138.923.386,1.249s.594.489,1.04.489c.326,0,.611-.047.857-.139.246-.094.458-.222.637-.384l.376.626c-.189.187-.438.342-.747.467-.309.124-.684.187-1.123.187ZM125.525,67.064c-.322,0-.597.136-.825.406-.228.271-.368.611-.42,1.02l.01.024h2.437v-.126c0-.377-.101-.691-.303-.944s-.501-.38-.898-.38Z"/>
    <path class="st7" d="M129.817,71.688h-.962v-.996h.962v.996Z"/>
    <path class="st7" d="M133.592,71.033c.319,0,.6-.099.842-.295.243-.197.364-.438.364-.726h.864l.01.029c.016.455-.187.861-.608,1.216s-.912.532-1.472.532c-.768,0-1.356-.251-1.763-.752-.407-.502-.61-1.131-.61-1.89v-.205c0-.752.204-1.379.613-1.882s.995-.755,1.76-.755c.619,0,1.124.183,1.516.547.392.365.582.812.569,1.343l-.01.029h-.869c0-.322-.114-.597-.342-.822-.228-.227-.516-.34-.864-.34-.504,0-.865.182-1.082.544s-.325.808-.325,1.334v.205c0,.539.107.989.322,1.348.215.359.576.539,1.084.539Z"/>
    <path class="st7" d="M136.526,68.997c0-.781.211-1.425.635-1.931.423-.507.998-.76,1.724-.76.732,0,1.311.253,1.736.757.425.505.637,1.149.637,1.934v.107c0,.788-.211,1.432-.635,1.934-.423.501-1,.752-1.729.752s-1.306-.251-1.731-.755c-.425-.503-.637-1.146-.637-1.931v-.107ZM137.488,69.103c0,.559.118,1.021.354,1.385s.587.546,1.052.546c.459,0,.807-.182,1.045-.546s.356-.826.356-1.385v-.107c0-.553-.12-1.013-.359-1.38-.239-.368-.59-.552-1.052-.552-.459,0-.807.184-1.042.552-.236.367-.354.827-.354,1.38v.107Z"/>
    <path class="st7" d="M143.294,66.405l.068.693c.172-.25.392-.445.657-.583.265-.139.574-.208.925-.208s.653.082.906.244c.252.163.442.407.569.732.166-.299.386-.537.659-.713s.592-.264.957-.264c.537,0,.962.185,1.274.555.312.369.469.925.469,1.667v3.159h-.962v-3.169c0-.521-.089-.89-.269-1.105-.179-.217-.446-.325-.801-.325-.329,0-.595.114-.798.342-.204.229-.323.517-.359.864v3.394h-.967v-3.169c0-.494-.092-.856-.276-1.086s-.448-.345-.793-.345c-.293,0-.534.061-.723.181-.189.121-.333.29-.435.508v3.911h-.962v-5.283h.859Z"/>
  </g>
  <path class="st1" d="M301.216,54.285l3.025-3.025c.223-.223.223-.585,0-.808s-.585-.223-.808,0l-3.025,3.025-3.025-3.025c-.223-.223-.585-.223-.808,0s-.223.585,0,.808l3.025,3.025-3.025,3.025c-.223.223-.223.585,0,.808.112.112.258.167.404.167s.292-.056.404-.167l3.025-3.025,3.025,3.025c.112.112.258.167.404.167s.292-.056.404-.167c.223-.223.223-.585,0-.808l-3.025-3.025Z"/>
  <g>
    <path class="st6" d="M67.577,131.152l2.041-3.975h1.208l-2.745,5.07v2.75h-1.053v-2.82l-2.701-5h1.209l2.041,3.975Z"/>
    <path class="st6" d="M71.455,132.037c0-.859.232-1.567.697-2.124.466-.557,1.098-.835,1.896-.835.806,0,1.442.277,1.909.832.468.556.701,1.265.701,2.127v.118c0,.867-.232,1.576-.698,2.127-.466.552-1.1.827-1.901.827s-1.437-.276-1.904-.829c-.467-.554-.7-1.262-.7-2.125v-.118ZM72.512,132.153c0,.615.13,1.123.39,1.524.26.4.646.601,1.157.601.505,0,.888-.2,1.149-.601.262-.401.393-.909.393-1.524v-.117c0-.608-.132-1.114-.396-1.519-.263-.404-.648-.606-1.157-.606-.505,0-.887.202-1.146.606s-.39.91-.39,1.519v.117Z"/>
    <path class="st6" d="M81.643,134.138c-.183.312-.417.551-.704.72-.286.168-.617.252-.993.252-.634,0-1.128-.202-1.482-.606-.354-.405-.532-1.035-.532-1.891v-3.427h1.059v3.438c0,.619.092,1.045.273,1.278.184.232.468.349.854.349.376,0,.687-.076.932-.228.245-.152.431-.368.556-.647v-4.189h1.059v5.812h-.951l-.069-.859Z"/>
    <path class="st6" d="M86.955,130.12l-.542-.032c-.279,0-.515.066-.706.198-.191.133-.34.319-.443.559v4.152h-1.059v-5.812h.945l.103.849c.165-.301.368-.535.609-.704.242-.168.521-.252.835-.252.079,0,.154.006.227.019.071.013.13.026.177.04l-.146.983Z"/>
    <path class="st6" d="M91.853,127.697h-1.059v-1.079h1.059v1.079ZM91.853,134.997h-1.059v-5.812h1.059v5.812Z"/>
    <path class="st6" d="M94.425,129.186l.076.864c.193-.308.436-.547.728-.717s.624-.255.996-.255c.627,0,1.112.184,1.456.551.344.366.516.934.516,1.699v3.669h-1.059v-3.647c0-.512-.102-.875-.304-1.09s-.511-.322-.927-.322c-.304,0-.573.073-.808.22-.234.147-.422.348-.562.602v4.238h-1.059v-5.812h.945Z"/>
    <path class="st6" d="M100.173,134.997v-5.027h-.908v-.784h.908v-.736c0-.619.161-1.098.485-1.437.324-.338.776-.508,1.356-.508.122,0,.244.01.368.03.123.02.261.047.411.083l-.129.806c-.064-.015-.143-.027-.234-.038-.091-.011-.187-.016-.287-.016-.308,0-.537.092-.688.276s-.226.452-.226.803v.736h1.208v.784h-1.208v5.027h-1.058Z"/>
    <path class="st6" d="M103.284,132.037c0-.859.232-1.567.697-2.124.466-.557,1.098-.835,1.896-.835.806,0,1.442.277,1.909.832.468.556.701,1.265.701,2.127v.118c0,.867-.232,1.576-.698,2.127-.466.552-1.1.827-1.901.827s-1.437-.276-1.904-.829c-.467-.554-.7-1.262-.7-2.125v-.118ZM104.341,132.153c0,.615.13,1.123.39,1.524.26.4.646.601,1.157.601.505,0,.888-.2,1.149-.601.262-.401.393-.909.393-1.524v-.117c0-.608-.132-1.114-.396-1.519-.263-.404-.648-.606-1.157-.606-.505,0-.887.202-1.146.606s-.39.91-.39,1.519v.117Z"/>
    <path class="st6" d="M112.532,130.12l-.542-.032c-.279,0-.515.066-.706.198-.191.133-.34.319-.443.559v4.152h-1.059v-5.812h.945l.103.849c.165-.301.368-.535.609-.704.242-.168.521-.252.835-.252.079,0,.154.006.227.019.071.013.13.026.177.04l-.146.983Z"/>
    <path class="st6" d="M114.498,129.186l.076.763c.189-.276.43-.49.722-.642.292-.152.632-.229,1.019-.229s.719.089.996.269c.277.179.486.447.625.806.184-.33.425-.591.726-.784s.651-.29,1.053-.29c.591,0,1.058.203,1.401.609s.516,1.018.516,1.834v3.476h-1.058v-3.486c0-.572-.099-.979-.296-1.216-.196-.238-.49-.357-.881-.357-.361,0-.654.125-.878.376-.224.25-.355.567-.395.95v3.733h-1.063v-3.486c0-.544-.102-.942-.304-1.194-.202-.253-.493-.379-.872-.379-.322,0-.588.066-.795.198-.208.133-.367.319-.479.559v4.303h-1.059v-5.812h.945Z"/>
    <path class="st6" d="M126.739,134.997c-.036-.176-.063-.33-.083-.465-.02-.134-.031-.27-.035-.405-.197.279-.454.513-.771.701-.317.188-.658.281-1.023.281-.605,0-1.066-.154-1.383-.464-.317-.311-.476-.737-.476-1.281,0-.556.225-.989.674-1.303s1.06-.47,1.829-.47h1.149v-.575c0-.34-.104-.609-.312-.808-.208-.199-.501-.299-.881-.299-.34,0-.617.087-.83.261s-.319.382-.319.626h-1.01l-.011-.032c-.021-.423.178-.81.599-1.16.421-.352.964-.526,1.63-.526.659,0,1.189.167,1.59.502.401.335.602.817.602,1.447v2.799c0,.207.012.408.033.602s.061.383.117.569h-1.09ZM124.983,134.218c.383,0,.729-.098,1.036-.294s.509-.422.602-.675v-.943h-1.187c-.427,0-.768.107-1.023.321-.256.215-.385.467-.385.756,0,.257.081.46.242.61s.399.225.715.225Z"/>
    <path class="st6" d="M130.611,127.783v1.402h1.102v.784h-1.102v3.528c0,.272.057.464.17.575.112.11.262.166.448.166.061,0,.128-.007.201-.021.073-.014.139-.032.196-.054l.14.726c-.079.064-.194.117-.347.158s-.305.062-.459.062c-.43,0-.771-.13-1.025-.389-.255-.26-.382-.667-.382-1.223v-3.528h-.924v-.784h.924v-1.402h1.058Z"/>
    <path class="st6" d="M134.162,127.697h-1.059v-1.079h1.059v1.079ZM134.162,134.997h-1.059v-5.812h1.059v5.812Z"/>
    <path class="st6" d="M135.542,132.037c0-.859.232-1.567.697-2.124.466-.557,1.098-.835,1.896-.835.806,0,1.442.277,1.909.832.468.556.701,1.265.701,2.127v.118c0,.867-.232,1.576-.698,2.127-.466.552-1.1.827-1.901.827s-1.437-.276-1.904-.829c-.467-.554-.7-1.262-.7-2.125v-.118ZM136.6,132.153c0,.615.13,1.123.39,1.524.26.4.646.601,1.157.601.505,0,.888-.2,1.149-.601.262-.401.393-.909.393-1.524v-.117c0-.608-.132-1.114-.396-1.519-.263-.404-.648-.606-1.157-.606-.505,0-.887.202-1.146.606s-.39.91-.39,1.519v.117Z"/>
    <path class="st6" d="M142.986,129.186l.076.864c.193-.308.436-.547.728-.717s.624-.255.996-.255c.627,0,1.112.184,1.456.551.344.366.516.934.516,1.699v3.669h-1.059v-3.647c0-.512-.102-.875-.304-1.09s-.511-.322-.927-.322c-.304,0-.573.073-.808.22-.234.147-.422.348-.562.602v4.238h-1.059v-5.812h.945Z"/>
    <path class="st6" d="M150.968,131.822c0-1.41.285-2.615.854-3.614.57-.999,1.168-1.665,1.795-1.998l.031.005.205.623c-.491.384-.918.997-1.281,1.843-.363.845-.545,1.889-.545,3.131v.07c0,1.242.181,2.286.542,3.131.361.846.79,1.476,1.284,1.891l-.205.58h-.031c-.627-.333-1.225-.998-1.795-1.995-.568-.997-.854-2.203-.854-3.617v-.049Z"/>
    <path class="st6" d="M155.115,134.997v-5.027h-.908v-.784h.908v-.736c0-.619.161-1.098.485-1.437.324-.338.776-.508,1.356-.508.122,0,.244.01.368.03.123.02.261.047.411.083l-.129.806c-.064-.015-.143-.027-.234-.038-.091-.011-.187-.016-.287-.016-.308,0-.537.092-.688.276s-.226.452-.226.803v.736h1.208v.784h-1.208v5.027h-1.058Z"/>
    <path class="st6" d="M158.224,132.037c0-.859.232-1.567.697-2.124.466-.557,1.098-.835,1.896-.835.806,0,1.442.277,1.909.832.468.556.701,1.265.701,2.127v.118c0,.867-.232,1.576-.698,2.127-.466.552-1.1.827-1.901.827s-1.437-.276-1.904-.829c-.467-.554-.7-1.262-.7-2.125v-.118ZM159.282,132.153c0,.615.13,1.123.39,1.524.26.4.646.601,1.157.601.505,0,.888-.2,1.149-.601.262-.401.393-.909.393-1.524v-.117c0-.608-.132-1.114-.396-1.519-.263-.404-.648-.606-1.157-.606-.505,0-.887.202-1.146.606s-.39.91-.39,1.519v.117Z"/>
    <path class="st6" d="M167.472,130.12l-.542-.032c-.279,0-.515.066-.706.198-.191.133-.339.319-.443.559v4.152h-1.059v-5.812h.945l.103.849c.165-.301.368-.535.609-.704.242-.168.521-.252.835-.252.079,0,.154.006.227.019.071.013.13.026.177.04l-.146.983Z"/>
    <path class="st6" d="M173.639,135.11c-.81,0-1.453-.27-1.931-.808-.479-.539-.718-1.238-.718-2.098v-.236c0-.827.247-1.516.739-2.065s1.075-.824,1.748-.824c.784,0,1.377.236,1.778.709.4.473.602,1.103.602,1.891v.66h-3.771l-.016.027c.011.557.152,1.015.424,1.374.272.358.654.538,1.145.538.358,0,.672-.051.942-.153.271-.102.504-.242.701-.422l.413.688c-.207.205-.481.377-.821.514s-.752.205-1.235.205ZM173.478,129.91c-.354,0-.657.149-.907.447-.251.298-.405.672-.463,1.121l.012.027h2.68v-.14c0-.414-.111-.76-.333-1.038s-.552-.418-.988-.418Z"/>
    <path class="st6" d="M179.016,131.328l1.235-2.143h1.235l-1.886,2.873,1.939,2.938h-1.214l-1.289-2.197-1.289,2.197h-1.225l1.938-2.938-1.885-2.873h1.219l1.22,2.143Z"/>
    <path class="st6" d="M186.147,134.997c-.036-.176-.063-.33-.083-.465-.02-.134-.031-.27-.035-.405-.197.279-.454.513-.771.701-.317.188-.658.281-1.023.281-.605,0-1.066-.154-1.383-.464-.317-.311-.476-.737-.476-1.281,0-.556.225-.989.674-1.303s1.06-.47,1.829-.47h1.149v-.575c0-.34-.104-.609-.312-.808-.208-.199-.501-.299-.881-.299-.34,0-.617.087-.83.261s-.319.382-.319.626h-1.01l-.011-.032c-.021-.423.178-.81.599-1.16.421-.352.964-.526,1.63-.526.659,0,1.189.167,1.59.502.401.335.602.817.602,1.447v2.799c0,.207.012.408.033.602s.061.383.117.569h-1.09ZM184.392,134.218c.383,0,.729-.098,1.036-.294s.509-.422.602-.675v-.943h-1.187c-.427,0-.768.107-1.023.321-.256.215-.385.467-.385.756,0,.257.081.46.242.61s.399.225.715.225Z"/>
    <path class="st6" d="M189.569,129.186l.076.763c.189-.276.43-.49.722-.642.292-.152.632-.229,1.019-.229s.719.089.996.269c.277.179.486.447.625.806.184-.33.425-.591.726-.784s.651-.29,1.053-.29c.591,0,1.058.203,1.401.609s.516,1.018.516,1.834v3.476h-1.058v-3.486c0-.572-.099-.979-.296-1.216-.196-.238-.49-.357-.881-.357-.361,0-.654.125-.878.376-.224.25-.355.567-.395.95v3.733h-1.063v-3.486c0-.544-.102-.942-.304-1.194-.202-.253-.493-.379-.872-.379-.322,0-.588.066-.795.198-.208.133-.367.319-.479.559v4.303h-1.059v-5.812h.945Z"/>
    <path class="st6" d="M203.19,132.312c0,.838-.201,1.514-.602,2.027-.401.514-.955.771-1.66.771-.358,0-.672-.06-.942-.18s-.501-.3-.69-.54v2.842h-1.059v-8.046h.812l.167.752c.189-.279.426-.492.709-.64.282-.146.611-.22.988-.22.719,0,1.278.285,1.678.856s.6,1.326.6,2.264v.113ZM202.132,132.196c0-.657-.13-1.198-.39-1.622s-.642-.636-1.146-.636c-.305,0-.563.068-.778.206s-.389.326-.521.566v2.806c.133.239.307.426.521.561.215.134.478.201.789.201.501,0,.881-.184,1.139-.55.258-.367.387-.84.387-1.419v-.113Z"/>
    <path class="st6" d="M205.634,134.997h-1.059v-8.379h1.059v8.379Z"/>
    <path class="st6" d="M209.673,135.11c-.81,0-1.453-.27-1.931-.808-.479-.539-.718-1.238-.718-2.098v-.236c0-.827.247-1.516.739-2.065s1.075-.824,1.748-.824c.784,0,1.377.236,1.778.709.4.473.602,1.103.602,1.891v.66h-3.771l-.016.027c.011.557.152,1.015.424,1.374.272.358.654.538,1.145.538.358,0,.672-.051.942-.153.271-.102.504-.242.701-.422l.413.688c-.207.205-.481.377-.821.514s-.752.205-1.235.205ZM209.512,129.91c-.354,0-.657.149-.907.447-.251.298-.405.672-.463,1.121l.012.027h2.68v-.14c0-.414-.111-.76-.333-1.038s-.552-.418-.988-.418Z"/>
    <path class="st6" d="M214.002,134.739l-.805,1.644h-.629l.376-1.697v-.876h1.058v.93Z"/>
    <path class="st6" d="M222.935,132.312c0,.838-.201,1.514-.602,2.027-.401.514-.955.771-1.66.771-.358,0-.672-.06-.942-.18s-.501-.3-.69-.54v2.842h-1.059v-8.046h.812l.167.752c.189-.279.426-.492.709-.64.282-.146.611-.22.988-.22.719,0,1.278.285,1.678.856s.6,1.326.6,2.264v.113ZM221.876,132.196c0-.657-.13-1.198-.39-1.622s-.642-.636-1.146-.636c-.305,0-.563.068-.778.206s-.389.326-.521.566v2.806c.133.239.307.426.521.561.215.134.478.201.789.201.501,0,.881-.184,1.139-.55.258-.367.387-.84.387-1.419v-.113Z"/>
    <path class="st6" d="M227.806,134.997c-.036-.176-.063-.33-.083-.465-.02-.134-.031-.27-.035-.405-.197.279-.454.513-.771.701-.317.188-.658.281-1.023.281-.605,0-1.066-.154-1.383-.464-.317-.311-.476-.737-.476-1.281,0-.556.225-.989.674-1.303s1.06-.47,1.829-.47h1.149v-.575c0-.34-.104-.609-.312-.808-.208-.199-.501-.299-.881-.299-.34,0-.617.087-.83.261s-.319.382-.319.626h-1.01l-.011-.032c-.021-.423.178-.81.599-1.16.421-.352.964-.526,1.63-.526.659,0,1.189.167,1.59.502.401.335.602.817.602,1.447v2.799c0,.207.012.408.033.602s.061.383.117.569h-1.09ZM226.05,134.218c.383,0,.729-.098,1.036-.294s.509-.422.602-.675v-.943h-1.187c-.427,0-.768.107-1.023.321-.256.215-.385.467-.385.756,0,.257.081.46.242.61s.399.225.715.225Z"/>
    <path class="st6" d="M233.661,133.45c0-.233-.089-.425-.266-.575-.178-.15-.514-.281-1.008-.392-.705-.154-1.235-.362-1.592-.625s-.535-.621-.535-1.075c0-.472.201-.874.602-1.207.401-.332.924-.498,1.568-.498.678,0,1.215.174,1.614.521.399.348.59.771.572,1.268l-.011.032h-1.01c0-.254-.106-.482-.319-.685s-.495-.304-.847-.304c-.375,0-.654.083-.838.247-.182.165-.273.363-.273.597,0,.229.08.41.242.542.16.133.488.251.982.354.734.158,1.28.372,1.639.643.357.27.537.633.537,1.087,0,.516-.209.933-.626,1.252-.417.318-.963.478-1.636.478-.741,0-1.325-.188-1.751-.563s-.628-.814-.606-1.316l.01-.032h1.01c.019.374.158.647.42.82.261.173.567.26.918.26.376,0,.671-.076.884-.229s.319-.352.319-.599Z"/>
    <path class="st6" d="M239.413,133.45c0-.233-.089-.425-.266-.575-.178-.15-.514-.281-1.008-.392-.705-.154-1.235-.362-1.592-.625s-.535-.621-.535-1.075c0-.472.201-.874.602-1.207.401-.332.924-.498,1.568-.498.678,0,1.215.174,1.614.521.399.348.59.771.572,1.268l-.011.032h-1.01c0-.254-.106-.482-.319-.685s-.495-.304-.847-.304c-.375,0-.654.083-.838.247-.182.165-.273.363-.273.597,0,.229.08.41.242.542.16.133.488.251.982.354.734.158,1.28.372,1.639.643.357.27.537.633.537,1.087,0,.516-.209.933-.626,1.252-.417.318-.963.478-1.636.478-.741,0-1.325-.188-1.751-.563s-.628-.814-.606-1.316l.01-.032h1.01c.019.374.158.647.42.82.261.173.567.26.918.26.376,0,.671-.076.884-.229s.319-.352.319-.599Z"/>
    <path class="st6" d="M243.274,132.881l.123.703h.033l.15-.703,1.16-3.695h.848l1.166,3.695.166.784h.033l.155-.784.913-3.695h1.053l-1.687,5.812h-.854l-1.122-3.54-.241-.988-.033.006-.23.982-1.106,3.54h-.854l-1.686-5.812h1.053l.961,3.695Z"/>
    <path class="st6" d="M249.866,132.037c0-.859.232-1.567.697-2.124.466-.557,1.098-.835,1.896-.835.806,0,1.442.277,1.909.832.468.556.701,1.265.701,2.127v.118c0,.867-.232,1.576-.698,2.127-.466.552-1.1.827-1.901.827s-1.437-.276-1.904-.829c-.467-.554-.7-1.262-.7-2.125v-.118ZM250.924,132.153c0,.615.13,1.123.39,1.524.26.4.646.601,1.157.601.505,0,.888-.2,1.149-.601.262-.401.393-.909.393-1.524v-.117c0-.608-.132-1.114-.396-1.519-.263-.404-.648-.606-1.157-.606-.505,0-.887.202-1.146.606s-.39.91-.39,1.519v.117Z"/>
    <path class="st6" d="M259.114,130.12l-.542-.032c-.279,0-.515.066-.706.198-.191.133-.34.319-.443.559v4.152h-1.059v-5.812h.945l.103.849c.165-.301.368-.535.609-.704.242-.168.521-.252.835-.252.079,0,.154.006.227.019.071.013.13.026.177.04l-.146.983Z"/>
    <path class="st6" d="M259.893,132.198c0-.935.199-1.688.599-2.261.399-.573.959-.859,1.679-.859.34,0,.642.062.905.188.263.126.487.309.674.548v-3.195h1.059v8.379h-.865l-.123-.715c-.19.272-.423.479-.699.618-.275.14-.596.209-.961.209-.709,0-1.264-.257-1.665-.771s-.602-1.189-.602-2.027v-.113ZM260.95,132.312c0,.587.12,1.057.36,1.41.24.353.612.528,1.117.528.315,0,.58-.071.795-.215.215-.143.391-.344.526-.602v-2.712c-.136-.24-.312-.431-.529-.572s-.477-.212-.781-.212c-.509,0-.884.209-1.125.628-.242.419-.363.964-.363,1.633v.113Z"/>
    <path class="st6" d="M269.765,133.45c0-.233-.089-.425-.266-.575-.178-.15-.514-.281-1.008-.392-.705-.154-1.235-.362-1.592-.625s-.535-.621-.535-1.075c0-.472.201-.874.602-1.207.401-.332.924-.498,1.568-.498.678,0,1.215.174,1.614.521.399.348.59.771.572,1.268l-.011.032h-1.01c0-.254-.106-.482-.319-.685s-.495-.304-.847-.304c-.375,0-.654.083-.838.247-.182.165-.273.363-.273.597,0,.229.08.41.242.542.16.133.488.251.982.354.734.158,1.28.372,1.639.643.357.27.537.633.537,1.087,0,.516-.209.933-.626,1.252-.417.318-.963.478-1.636.478-.741,0-1.325-.188-1.751-.563s-.628-.814-.606-1.316l.01-.032h1.01c.019.374.158.647.42.82.261.173.567.26.918.26.376,0,.671-.076.884-.229s.319-.352.319-.599Z"/>
    <path class="st6" d="M274.626,132.037c0-.859.232-1.567.697-2.124.466-.557,1.098-.835,1.896-.835.806,0,1.442.277,1.909.832.468.556.701,1.265.701,2.127v.118c0,.867-.232,1.576-.698,2.127-.466.552-1.1.827-1.901.827s-1.437-.276-1.904-.829c-.467-.554-.7-1.262-.7-2.125v-.118ZM275.684,132.153c0,.615.13,1.123.39,1.524.26.4.646.601,1.157.601.505,0,.888-.2,1.149-.601.262-.401.393-.909.393-1.524v-.117c0-.608-.132-1.114-.396-1.519-.263-.404-.648-.606-1.157-.606-.505,0-.887.202-1.146.606s-.39.91-.39,1.519v.117Z"/>
    <path class="st6" d="M283.874,130.12l-.542-.032c-.279,0-.515.066-.706.198-.191.133-.34.319-.443.559v4.152h-1.059v-5.812h.945l.103.849c.165-.301.368-.535.609-.704.242-.168.521-.252.835-.252.079,0,.154.006.227.019.071.013.13.026.177.04l-.146.983Z"/>
    <path class="st6" d="M67.35,152.278c.352,0,.66-.108.927-.325s.4-.482.4-.798h.95l.012.032c.018.502-.205.947-.669,1.338-.464.39-1.004.585-1.62.585-.845,0-1.491-.275-1.938-.827-.447-.551-.671-1.244-.671-2.078v-.226c0-.827.225-1.518.674-2.07.449-.554,1.095-.83,1.936-.83.681,0,1.236.2,1.668.602.432.4.641.894.626,1.477l-.011.032h-.956c0-.354-.125-.656-.376-.904-.251-.249-.567-.374-.951-.374-.555,0-.951.199-1.189.599-.238.398-.357.888-.357,1.467v.226c0,.594.119,1.088.355,1.483.236.395.633.593,1.191.593Z"/>
    <path class="st6" d="M73.576,148.12l-.542-.032c-.279,0-.515.066-.706.198-.191.133-.34.319-.443.559v4.152h-1.059v-5.812h.945l.103.849c.165-.301.368-.535.609-.704.242-.168.521-.252.835-.252.079,0,.154.006.227.019.071.013.13.026.177.04l-.146.983Z"/>
    <path class="st6" d="M77.007,153.11c-.81,0-1.453-.27-1.931-.808-.479-.539-.718-1.238-.718-2.098v-.236c0-.827.247-1.516.739-2.065s1.075-.824,1.748-.824c.784,0,1.377.236,1.778.709.4.473.602,1.103.602,1.891v.66h-3.771l-.016.027c.011.557.152,1.015.424,1.374.272.358.654.538,1.145.538.358,0,.672-.051.942-.153.271-.102.504-.242.701-.422l.413.688c-.207.205-.481.377-.821.514s-.752.205-1.235.205ZM76.846,147.91c-.354,0-.657.149-.907.447-.251.298-.405.672-.463,1.121l.012.027h2.68v-.14c0-.414-.111-.76-.333-1.038s-.552-.418-.988-.418Z"/>
    <path class="st6" d="M80.171,150.198c0-.935.199-1.688.599-2.261.399-.573.959-.859,1.679-.859.34,0,.642.062.905.188.263.126.487.309.674.548v-3.195h1.059v8.379h-.865l-.123-.715c-.19.272-.423.479-.699.618-.275.14-.596.209-.961.209-.709,0-1.264-.257-1.665-.771s-.602-1.189-.602-2.027v-.113ZM81.229,150.312c0,.587.12,1.057.36,1.41.24.353.612.528,1.117.528.315,0,.58-.071.795-.215.215-.143.391-.344.526-.602v-2.712c-.136-.24-.312-.431-.529-.572s-.477-.212-.781-.212c-.509,0-.884.209-1.125.628-.242.419-.363.964-.363,1.633v.113Z"/>
    <path class="st6" d="M87.809,145.697h-1.059v-1.079h1.059v1.079ZM87.809,152.997h-1.059v-5.812h1.059v5.812Z"/>
    <path class="st6" d="M90.833,145.783v1.402h1.102v.784h-1.102v3.528c0,.272.057.464.17.575.112.11.262.166.448.166.061,0,.128-.007.201-.021.073-.014.139-.032.196-.054l.14.726c-.079.064-.194.117-.347.158s-.305.062-.459.062c-.43,0-.771-.13-1.025-.389-.255-.26-.382-.667-.382-1.223v-3.528h-.924v-.784h.924v-1.402h1.058Z"/>
    <path class="st6" d="M98.335,152.278c.352,0,.66-.108.927-.325s.4-.482.4-.798h.95l.012.032c.018.502-.205.947-.669,1.338-.464.39-1.004.585-1.62.585-.845,0-1.491-.275-1.938-.827-.447-.551-.671-1.244-.671-2.078v-.226c0-.827.225-1.518.674-2.07.449-.554,1.095-.83,1.936-.83.681,0,1.236.2,1.668.602.432.4.641.894.626,1.477l-.011.032h-.956c0-.354-.125-.656-.376-.904-.251-.249-.567-.374-.951-.374-.555,0-.951.199-1.189.599-.238.398-.357.888-.357,1.467v.226c0,.594.119,1.088.355,1.483.236.395.633.593,1.191.593Z"/>
    <path class="st6" d="M105.383,152.997c-.036-.176-.063-.33-.083-.465-.02-.134-.031-.27-.035-.405-.197.279-.454.513-.771.701-.317.188-.658.281-1.023.281-.605,0-1.066-.154-1.383-.464-.317-.311-.476-.737-.476-1.281,0-.556.225-.989.674-1.303s1.06-.47,1.829-.47h1.149v-.575c0-.34-.104-.609-.312-.808-.208-.199-.501-.299-.881-.299-.34,0-.617.087-.83.261s-.319.382-.319.626h-1.01l-.011-.032c-.021-.423.178-.81.599-1.16.421-.352.964-.526,1.63-.526.659,0,1.189.167,1.59.502.401.335.602.817.602,1.447v2.799c0,.207.012.408.033.602s.061.383.117.569h-1.09ZM103.627,152.218c.383,0,.729-.098,1.036-.294s.509-.422.602-.675v-.943h-1.187c-.427,0-.768.107-1.023.321-.256.215-.385.467-.385.756,0,.257.081.46.242.61s.399.225.715.225Z"/>
    <path class="st6" d="M110.609,148.12l-.542-.032c-.279,0-.515.066-.706.198-.191.133-.34.319-.443.559v4.152h-1.059v-5.812h.945l.103.849c.165-.301.368-.535.609-.704.242-.168.521-.252.835-.252.079,0,.154.006.227.019.071.013.13.026.177.04l-.146.983Z"/>
    <path class="st6" d="M111.388,150.198c0-.935.199-1.688.599-2.261.399-.573.959-.859,1.679-.859.34,0,.642.062.905.188.263.126.487.309.674.548v-3.195h1.059v8.379h-.865l-.123-.715c-.19.272-.423.479-.699.618-.275.14-.596.209-.961.209-.709,0-1.264-.257-1.665-.771s-.602-1.189-.602-2.027v-.113ZM112.446,150.312c0,.587.12,1.057.36,1.41.24.353.612.528,1.117.528.315,0,.58-.071.795-.215.215-.143.391-.344.526-.602v-2.712c-.136-.24-.312-.431-.529-.572s-.477-.212-.781-.212c-.509,0-.884.209-1.125.628-.242.419-.363.964-.363,1.633v.113Z"/>
    <path class="st6" d="M121.56,147.186l.076.864c.193-.308.436-.547.728-.717s.624-.255.996-.255c.627,0,1.112.184,1.456.551.344.366.516.934.516,1.699v3.669h-1.059v-3.647c0-.512-.102-.875-.304-1.09s-.511-.322-.927-.322c-.304,0-.573.073-.808.22-.234.147-.422.348-.562.602v4.238h-1.059v-5.812h.945Z"/>
    <path class="st6" d="M130.557,152.138c-.183.312-.417.551-.704.72-.286.168-.617.252-.993.252-.634,0-1.128-.202-1.482-.606-.354-.405-.532-1.035-.532-1.891v-3.427h1.059v3.438c0,.619.092,1.045.273,1.278.184.232.468.349.854.349.376,0,.687-.076.932-.228.245-.152.431-.368.556-.647v-4.189h1.059v5.812h-.951l-.069-.859Z"/>
    <path class="st6" d="M134.064,147.186l.076.763c.189-.276.43-.49.722-.642.292-.152.632-.229,1.019-.229s.719.089.996.269c.277.179.486.447.625.806.184-.33.425-.591.726-.784s.651-.29,1.053-.29c.591,0,1.058.203,1.401.609s.516,1.018.516,1.834v3.476h-1.058v-3.486c0-.572-.099-.979-.296-1.216-.196-.238-.49-.357-.881-.357-.361,0-.654.125-.878.376-.224.25-.355.567-.395.95v3.733h-1.063v-3.486c0-.544-.102-.942-.304-1.194-.202-.253-.493-.379-.872-.379-.322,0-.588.066-.795.198-.208.133-.367.319-.479.559v4.303h-1.059v-5.812h.945Z"/>
    <path class="st6" d="M147.697,150.312c0,.838-.201,1.514-.604,2.027-.403.514-.957.771-1.662.771-.384,0-.717-.074-1-.223-.282-.148-.517-.368-.703-.658l-.129.769h-.865v-8.379h1.059v3.255c.183-.258.409-.455.68-.591.271-.137.586-.204.947-.204.717,0,1.275.286,1.676.859.401.572.602,1.326.602,2.261v.113ZM146.639,150.198c0-.666-.123-1.209-.368-1.63s-.618-.631-1.119-.631c-.326,0-.602.079-.825.239-.224.159-.401.373-.534.642v2.519c.136.287.314.511.534.672.221.161.499.241.835.241.498,0,.869-.177,1.112-.531s.365-.824.365-1.407v-.113Z"/>
    <path class="st6" d="M151.398,153.11c-.81,0-1.453-.27-1.931-.808-.479-.539-.718-1.238-.718-2.098v-.236c0-.827.247-1.516.739-2.065s1.075-.824,1.748-.824c.784,0,1.377.236,1.778.709.4.473.602,1.103.602,1.891v.66h-3.771l-.016.027c.011.557.152,1.015.424,1.374.272.358.654.538,1.145.538.358,0,.672-.051.942-.153.271-.102.504-.242.701-.422l.413.688c-.207.205-.481.377-.821.514s-.752.205-1.235.205ZM151.237,147.91c-.354,0-.657.149-.907.447-.251.298-.405.672-.463,1.121l.012.027h2.68v-.14c0-.414-.111-.76-.333-1.038s-.552-.418-.988-.418Z"/>
    <path class="st6" d="M157.552,148.12l-.542-.032c-.279,0-.515.066-.706.198-.191.133-.34.319-.443.559v4.152h-1.059v-5.812h.945l.103.849c.165-.301.368-.535.609-.704.242-.168.521-.252.835-.252.079,0,.154.006.227.019.071.013.13.026.177.04l-.146.983Z"/>
    <path class="st6" d="M161.952,151.45c0-.233-.089-.425-.266-.575-.178-.15-.514-.281-1.008-.392-.705-.154-1.235-.362-1.592-.625s-.535-.621-.535-1.075c0-.472.201-.874.602-1.207.401-.332.924-.498,1.568-.498.678,0,1.215.174,1.614.521.399.348.59.771.572,1.268l-.011.032h-1.01c0-.254-.106-.482-.319-.685s-.495-.304-.847-.304c-.375,0-.654.083-.838.247-.182.165-.273.363-.273.597,0,.229.08.41.242.542.16.133.488.251.982.354.734.158,1.28.372,1.639.643.357.27.537.633.537,1.087,0,.516-.209.933-.626,1.252-.417.318-.963.478-1.636.478-.741,0-1.325-.188-1.751-.563s-.628-.814-.606-1.316l.01-.032h1.01c.019.374.158.647.42.82.261.173.567.26.918.26.376,0,.671-.076.884-.229s.319-.352.319-.599Z"/>
    <path class="st6" d="M166.474,149.871c0,1.414-.285,2.62-.856,3.617-.571.997-1.168,1.662-1.791,1.995h-.032l-.204-.58c.483-.376.908-.994,1.275-1.855s.551-1.917.551-3.166v-.07c0-1.225-.188-2.269-.566-3.134-.378-.864-.798-1.494-1.26-1.888l.204-.58h.032c.623.333,1.22.999,1.791,1.998.571.999.856,2.204.856,3.614v.049Z"/>
    <path class="st6" d="M171.894,145.697h-1.059v-1.079h1.059v1.079ZM171.894,152.997h-1.059v-5.812h1.059v5.812Z"/>
    <path class="st6" d="M176.899,151.45c0-.233-.089-.425-.266-.575-.178-.15-.514-.281-1.008-.392-.705-.154-1.235-.362-1.592-.625s-.535-.621-.535-1.075c0-.472.201-.874.602-1.207.401-.332.924-.498,1.568-.498.678,0,1.215.174,1.614.521.399.348.59.771.572,1.268l-.011.032h-1.01c0-.254-.106-.482-.319-.685s-.495-.304-.847-.304c-.375,0-.654.083-.838.247-.182.165-.273.363-.273.597,0,.229.08.41.242.542.16.133.488.251.982.354.734.158,1.28.372,1.639.643.357.27.537.633.537,1.087,0,.516-.209.933-.626,1.252-.417.318-.963.478-1.636.478-.741,0-1.325-.188-1.751-.563s-.628-.814-.606-1.316l.01-.032h1.01c.019.374.158.647.42.82.261.173.567.26.918.26.376,0,.671-.076.884-.229s.319-.352.319-.599Z"/>
    <path class="st6" d="M186.96,150.312c0,.838-.201,1.514-.602,2.027-.401.514-.955.771-1.66.771-.358,0-.672-.06-.942-.18s-.501-.3-.69-.54v2.842h-1.059v-8.046h.812l.167.752c.189-.279.426-.492.709-.64.282-.146.611-.22.988-.22.719,0,1.278.285,1.678.856s.6,1.326.6,2.264v.113ZM185.901,150.196c0-.657-.13-1.198-.39-1.622s-.642-.636-1.146-.636c-.305,0-.563.068-.778.206s-.389.326-.521.566v2.806c.133.239.307.426.521.561.215.134.478.201.789.201.501,0,.881-.184,1.139-.55.258-.367.387-.84.387-1.419v-.113Z"/>
    <path class="st6" d="M191.009,148.12l-.542-.032c-.279,0-.515.066-.706.198-.191.133-.34.319-.443.559v4.152h-1.059v-5.812h.945l.103.849c.165-.301.368-.535.609-.704.242-.168.521-.252.835-.252.079,0,.154.006.227.019.071.013.13.026.177.04l-.146.983Z"/>
    <path class="st6" d="M193.173,145.697h-1.059v-1.079h1.059v1.079ZM193.173,152.997h-1.059v-5.812h1.059v5.812Z"/>
    <path class="st6" d="M196.739,151.283l.092.408h.031l.103-.408,1.337-4.098h1.08l-2.138,5.812h-.8l-2.165-5.812h1.085l1.375,4.098Z"/>
    <path class="st6" d="M203.905,152.997c-.036-.176-.063-.33-.083-.465-.02-.134-.031-.27-.035-.405-.197.279-.454.513-.771.701-.317.188-.658.281-1.023.281-.605,0-1.066-.154-1.383-.464-.317-.311-.476-.737-.476-1.281,0-.556.225-.989.674-1.303s1.06-.47,1.829-.47h1.149v-.575c0-.34-.104-.609-.312-.808-.208-.199-.501-.299-.881-.299-.34,0-.617.087-.83.261s-.319.382-.319.626h-1.01l-.011-.032c-.021-.423.178-.81.599-1.16.421-.352.964-.526,1.63-.526.659,0,1.189.167,1.59.502.401.335.602.817.602,1.447v2.799c0,.207.012.408.033.602s.061.383.117.569h-1.09ZM202.149,152.218c.383,0,.729-.098,1.036-.294s.509-.422.602-.675v-.943h-1.187c-.427,0-.768.107-1.023.321-.256.215-.385.467-.385.756,0,.257.081.46.242.61s.399.225.715.225Z"/>
    <path class="st6" d="M207.776,145.783v1.402h1.102v.784h-1.102v3.528c0,.272.057.464.17.575.112.11.262.166.448.166.061,0,.128-.007.201-.021.073-.014.139-.032.196-.054l.14.726c-.079.064-.194.117-.347.158s-.305.062-.459.062c-.43,0-.771-.13-1.025-.389-.255-.26-.382-.667-.382-1.223v-3.528h-.924v-.784h.924v-1.402h1.058Z"/>
    <path class="st6" d="M212.595,153.11c-.81,0-1.453-.27-1.931-.808-.479-.539-.718-1.238-.718-2.098v-.236c0-.827.247-1.516.739-2.065s1.075-.824,1.748-.824c.784,0,1.377.236,1.778.709.4.473.602,1.103.602,1.891v.66h-3.771l-.016.027c.011.557.152,1.015.424,1.374.272.358.654.538,1.145.538.358,0,.672-.051.942-.153.271-.102.504-.242.701-.422l.413.688c-.207.205-.481.377-.821.514s-.752.205-1.235.205ZM212.434,147.91c-.354,0-.657.149-.907.447-.251.298-.405.672-.463,1.121l.012.027h2.68v-.14c0-.414-.111-.76-.333-1.038s-.552-.418-.988-.418Z"/>
    <path class="st6" d="M220.222,150.881l.123.703h.033l.15-.703,1.16-3.695h.848l1.166,3.695.166.784h.033l.155-.784.913-3.695h1.053l-1.687,5.812h-.854l-1.122-3.54-.241-.988-.033.006-.23.982-1.106,3.54h-.854l-1.686-5.812h1.053l.961,3.695Z"/>
    <path class="st6" d="M228.118,147.964c.2-.279.446-.496.738-.652.292-.155.615-.233.97-.233.619,0,1.102.186,1.447.559.346.372.519.945.519,1.719v3.642h-1.059v-3.652c0-.48-.103-.835-.309-1.063-.206-.229-.513-.344-.921-.344-.294,0-.56.068-.798.207-.238.138-.434.324-.588.561v4.292h-1.059v-8.379h1.059v3.346Z"/>
    <path class="st6" d="M235.724,153.11c-.81,0-1.453-.27-1.931-.808-.479-.539-.718-1.238-.718-2.098v-.236c0-.827.247-1.516.739-2.065s1.075-.824,1.748-.824c.784,0,1.377.236,1.778.709.4.473.602,1.103.602,1.891v.66h-3.771l-.016.027c.011.557.152,1.015.424,1.374.272.358.654.538,1.145.538.358,0,.672-.051.942-.153.271-.102.504-.242.701-.422l.413.688c-.207.205-.481.377-.821.514s-.752.205-1.235.205ZM235.562,147.91c-.354,0-.657.149-.907.447-.251.298-.405.672-.463,1.121l.012.027h2.68v-.14c0-.414-.111-.76-.333-1.038s-.552-.418-.988-.418Z"/>
    <path class="st6" d="M240.073,147.186l.076.864c.193-.308.436-.547.728-.717s.624-.255.996-.255c.627,0,1.112.184,1.456.551.344.366.516.934.516,1.699v3.669h-1.059v-3.647c0-.512-.102-.875-.304-1.09s-.511-.322-.927-.322c-.304,0-.573.073-.808.22-.234.147-.422.348-.562.602v4.238h-1.059v-5.812h.945Z"/>
    <path class="st6" d="M249.259,145.697h-1.059v-1.079h1.059v1.079ZM249.259,152.997h-1.059v-5.812h1.059v5.812Z"/>
    <path class="st6" d="M252.282,145.783v1.402h1.102v.784h-1.102v3.528c0,.272.057.464.17.575.112.11.262.166.448.166.061,0,.128-.007.201-.021.073-.014.139-.032.196-.054l.14.726c-.079.064-.194.117-.347.158s-.305.062-.459.062c-.43,0-.771-.13-1.025-.389-.255-.26-.382-.667-.382-1.223v-3.528h-.924v-.784h.924v-1.402h1.058Z"/>
    <path class="st6" d="M258.566,145.697h-1.059v-1.079h1.059v1.079ZM258.566,152.997h-1.059v-5.812h1.059v5.812Z"/>
    <path class="st6" d="M263.572,151.45c0-.233-.089-.425-.266-.575-.178-.15-.514-.281-1.008-.392-.705-.154-1.235-.362-1.592-.625s-.535-.621-.535-1.075c0-.472.201-.874.602-1.207.401-.332.924-.498,1.568-.498.678,0,1.215.174,1.614.521.399.348.59.771.572,1.268l-.011.032h-1.01c0-.254-.106-.482-.319-.685s-.495-.304-.847-.304c-.375,0-.654.083-.838.247-.182.165-.273.363-.273.597,0,.229.08.41.242.542.16.133.488.251.982.354.734.158,1.28.372,1.639.643.357.27.537.633.537,1.087,0,.516-.209.933-.626,1.252-.417.318-.963.478-1.636.478-.741,0-1.325-.188-1.751-.563s-.628-.814-.606-1.316l.01-.032h1.01c.019.374.158.647.42.82.261.173.567.26.918.26.376,0,.671-.076.884-.229s.319-.352.319-.599Z"/>
    <path class="st6" d="M272.059,151.45c0-.233-.089-.425-.266-.575-.178-.15-.514-.281-1.008-.392-.705-.154-1.235-.362-1.592-.625s-.535-.621-.535-1.075c0-.472.201-.874.602-1.207.401-.332.924-.498,1.568-.498.678,0,1.215.174,1.614.521.399.348.59.771.572,1.268l-.011.032h-1.01c0-.254-.106-.482-.319-.685s-.495-.304-.847-.304c-.375,0-.654.083-.838.247-.182.165-.273.363-.273.597,0,.229.08.41.242.542.16.133.488.251.982.354.734.158,1.28.372,1.639.643.357.27.537.633.537,1.087,0,.516-.209.933-.626,1.252-.417.318-.963.478-1.636.478-.741,0-1.325-.188-1.751-.563s-.628-.814-.606-1.316l.01-.032h1.01c.019.374.158.647.42.82.261.173.567.26.918.26.376,0,.671-.076.884-.229s.319-.352.319-.599Z"/>
    <path class="st6" d="M276.845,153.11c-.81,0-1.453-.27-1.931-.808-.479-.539-.718-1.238-.718-2.098v-.236c0-.827.247-1.516.739-2.065s1.075-.824,1.748-.824c.784,0,1.377.236,1.778.709.4.473.602,1.103.602,1.891v.66h-3.771l-.016.027c.011.557.152,1.015.424,1.374.272.358.654.538,1.145.538.358,0,.672-.051.942-.153.271-.102.504-.242.701-.422l.413.688c-.207.205-.481.377-.821.514s-.752.205-1.235.205ZM276.684,147.91c-.354,0-.657.149-.907.447-.251.298-.405.672-.463,1.121l.012.027h2.68v-.14c0-.414-.111-.76-.333-1.038s-.552-.418-.988-.418Z"/>
    <path class="st6" d="M281.194,147.186l.076.864c.193-.308.436-.547.728-.717s.624-.255.996-.255c.627,0,1.112.184,1.456.551.344.366.516.934.516,1.699v3.669h-1.059v-3.647c0-.512-.102-.875-.304-1.09s-.511-.322-.927-.322c-.304,0-.573.073-.808.22-.234.147-.422.348-.562.602v4.238h-1.059v-5.812h.945Z"/>
    <path class="st6" d="M287.897,145.783v1.402h1.102v.784h-1.102v3.528c0,.272.057.464.17.575.112.11.262.166.448.166.061,0,.128-.007.201-.021.073-.014.139-.032.196-.054l.14.726c-.079.064-.194.117-.347.158s-.305.062-.459.062c-.43,0-.771-.13-1.025-.389-.255-.26-.382-.667-.382-1.223v-3.528h-.924v-.784h.924v-1.402h1.058Z"/>
    <path class="st6" d="M66.383,163.783v1.402h1.102v.784h-1.102v3.528c0,.272.057.464.17.575.112.11.262.166.448.166.061,0,.128-.007.201-.021.073-.014.139-.032.196-.054l.14.726c-.079.064-.194.117-.347.158s-.305.062-.459.062c-.43,0-.771-.13-1.025-.389-.255-.26-.382-.667-.382-1.223v-3.528h-.924v-.784h.924v-1.402h1.058Z"/>
    <path class="st6" d="M68.543,168.037c0-.859.232-1.567.697-2.124.466-.557,1.098-.835,1.896-.835.806,0,1.442.277,1.909.832.468.556.701,1.265.701,2.127v.118c0,.867-.232,1.576-.698,2.127-.466.552-1.1.827-1.901.827s-1.437-.276-1.904-.829c-.467-.554-.7-1.262-.7-2.125v-.118ZM69.601,168.153c0,.615.13,1.123.39,1.524.26.4.646.601,1.157.601.505,0,.888-.2,1.149-.601.262-.401.393-.909.393-1.524v-.117c0-.608-.132-1.114-.396-1.519-.263-.404-.648-.606-1.157-.606-.505,0-.887.202-1.146.606s-.39.91-.39,1.519v.117Z"/>
    <path class="st6" d="M79.171,163.783v1.402h1.102v.784h-1.102v3.528c0,.272.057.464.17.575.112.11.262.166.448.166.061,0,.128-.007.201-.021.073-.014.139-.032.196-.054l.14.726c-.079.064-.194.117-.347.158s-.305.062-.459.062c-.43,0-.771-.13-1.025-.389-.255-.26-.382-.667-.382-1.223v-3.528h-.924v-.784h.924v-1.402h1.058Z"/>
    <path class="st6" d="M82.636,165.964c.2-.279.446-.496.738-.652.292-.155.615-.233.97-.233.619,0,1.102.186,1.447.559.346.372.519.945.519,1.719v3.642h-1.059v-3.652c0-.48-.103-.835-.309-1.063-.206-.229-.513-.344-.921-.344-.294,0-.56.068-.798.207-.238.138-.434.324-.588.561v4.292h-1.059v-8.379h1.059v3.346Z"/>
    <path class="st6" d="M88.974,163.697h-1.059v-1.079h1.059v1.079ZM88.974,170.997h-1.059v-5.812h1.059v5.812Z"/>
    <path class="st6" d="M93.98,169.45c0-.233-.089-.425-.266-.575-.178-.15-.514-.281-1.008-.392-.705-.154-1.235-.362-1.592-.625s-.535-.621-.535-1.075c0-.472.201-.874.602-1.207.401-.332.924-.498,1.568-.498.678,0,1.215.174,1.614.521.399.348.59.771.572,1.268l-.011.032h-1.01c0-.254-.106-.482-.319-.685s-.495-.304-.847-.304c-.375,0-.654.083-.838.247-.182.165-.273.363-.273.597,0,.229.08.41.242.542.16.133.488.251.982.354.734.158,1.28.372,1.639.643.357.27.537.633.537,1.087,0,.516-.209.933-.626,1.252-.417.318-.963.478-1.636.478-.741,0-1.325-.188-1.751-.563s-.628-.814-.606-1.316l.01-.032h1.01c.019.374.158.647.42.82.261.173.567.26.918.26.376,0,.671-.076.884-.229s.319-.352.319-.599Z"/>
    <path class="st6" d="M102.466,169.45c0-.233-.089-.425-.266-.575-.178-.15-.514-.281-1.008-.392-.705-.154-1.235-.362-1.592-.625s-.535-.621-.535-1.075c0-.472.201-.874.602-1.207.401-.332.924-.498,1.568-.498.678,0,1.215.174,1.614.521.399.348.59.771.572,1.268l-.011.032h-1.01c0-.254-.106-.482-.319-.685s-.495-.304-.847-.304c-.375,0-.654.083-.838.247-.182.165-.273.363-.273.597,0,.229.08.41.242.542.16.133.488.251.982.354.734.158,1.28.372,1.639.643.357.27.537.633.537,1.087,0,.516-.209.933-.626,1.252-.417.318-.963.478-1.636.478-.741,0-1.325-.188-1.751-.563s-.628-.814-.606-1.316l.01-.032h1.01c.019.374.158.647.42.82.261.173.567.26.918.26.376,0,.671-.076.884-.229s.319-.352.319-.599Z"/>
    <path class="st6" d="M105.985,163.697h-1.059v-1.079h1.059v1.079ZM105.985,170.997h-1.059v-5.812h1.059v5.812Z"/>
    <path class="st6" d="M109.008,163.783v1.402h1.102v.784h-1.102v3.528c0,.272.057.464.17.575.112.11.262.166.448.166.061,0,.128-.007.201-.021.073-.014.139-.032.196-.054l.14.726c-.079.064-.194.117-.347.158s-.305.062-.459.062c-.43,0-.771-.13-1.025-.389-.255-.26-.382-.667-.382-1.223v-3.528h-.924v-.784h.924v-1.402h1.058Z"/>
    <path class="st6" d="M113.827,171.11c-.81,0-1.453-.27-1.931-.808-.479-.539-.718-1.238-.718-2.098v-.236c0-.827.247-1.516.739-2.065s1.075-.824,1.748-.824c.784,0,1.377.236,1.778.709.4.473.602,1.103.602,1.891v.66h-3.771l-.016.027c.011.557.152,1.015.424,1.374.272.358.654.538,1.145.538.358,0,.672-.051.942-.153.271-.102.504-.242.701-.422l.413.688c-.207.205-.481.377-.821.514s-.752.205-1.235.205ZM113.666,165.91c-.354,0-.657.149-.907.447-.251.298-.405.672-.463,1.121l.012.027h2.68v-.14c0-.414-.111-.76-.333-1.038s-.552-.418-.988-.418Z"/>
    <path class="st6" d="M118.387,170.997h-1.058v-1.096h1.058v1.096Z"/>
    <path class="st0" d="M124.167,170.164h3.7v.833h-4.759v-7.82h1.059v6.987Z"/>
    <path class="st0" d="M131.261,171.11c-.81,0-1.453-.27-1.931-.808-.479-.539-.718-1.238-.718-2.098v-.236c0-.827.247-1.516.739-2.065s1.075-.824,1.748-.824c.784,0,1.377.236,1.778.709.4.473.602,1.103.602,1.891v.66h-3.771l-.016.027c.011.557.152,1.015.424,1.374.272.358.654.538,1.145.538.358,0,.672-.051.942-.153.271-.102.504-.242.701-.422l.413.688c-.207.205-.481.377-.821.514s-.752.205-1.235.205ZM131.1,165.91c-.354,0-.657.149-.907.447-.251.298-.405.672-.463,1.121l.012.027h2.68v-.14c0-.414-.111-.76-.333-1.038s-.552-.418-.988-.418Z"/>
    <path class="st0" d="M138.238,170.997c-.036-.176-.063-.33-.083-.465-.02-.134-.031-.27-.035-.405-.197.279-.454.513-.771.701-.317.188-.658.281-1.023.281-.605,0-1.066-.154-1.383-.464-.317-.311-.476-.737-.476-1.281,0-.556.225-.989.674-1.303s1.06-.47,1.829-.47h1.149v-.575c0-.34-.104-.609-.312-.808-.208-.199-.501-.299-.881-.299-.34,0-.617.087-.83.261s-.319.382-.319.626h-1.01l-.011-.032c-.021-.423.178-.81.599-1.16.421-.352.964-.526,1.63-.526.659,0,1.189.167,1.59.502.401.335.602.817.602,1.447v2.799c0,.207.012.408.033.602s.061.383.117.569h-1.09ZM136.482,170.218c.383,0,.729-.098,1.036-.294s.509-.422.602-.675v-.943h-1.187c-.427,0-.768.107-1.023.321-.256.215-.385.467-.385.756,0,.257.081.46.242.61s.399.225.715.225Z"/>
    <path class="st0" d="M143.464,166.12l-.542-.032c-.279,0-.515.066-.706.198-.191.133-.34.319-.443.559v4.152h-1.059v-5.812h.945l.103.849c.165-.301.368-.535.609-.704.242-.168.521-.252.835-.252.079,0,.154.006.227.019.071.013.13.026.177.04l-.146.983Z"/>
    <path class="st0" d="M145.429,165.186l.076.864c.193-.308.436-.547.728-.717s.624-.255.996-.255c.627,0,1.112.184,1.456.551.344.366.516.934.516,1.699v3.669h-1.059v-3.647c0-.512-.102-.875-.304-1.09s-.511-.322-.927-.322c-.304,0-.573.073-.808.22-.234.147-.422.348-.562.602v4.238h-1.059v-5.812h.945Z"/>
    <path class="st0" d="M154.416,165.186l.076.763c.189-.276.43-.49.722-.642.292-.152.632-.229,1.019-.229s.719.089.996.269c.277.179.486.447.625.806.184-.33.425-.591.726-.784s.651-.29,1.053-.29c.591,0,1.058.203,1.401.609s.516,1.018.516,1.834v3.476h-1.058v-3.486c0-.572-.099-.979-.296-1.216-.196-.238-.49-.357-.881-.357-.361,0-.654.125-.878.376-.224.25-.355.567-.395.95v3.733h-1.063v-3.486c0-.544-.102-.942-.304-1.194-.202-.253-.493-.379-.872-.379-.322,0-.588.066-.795.198-.208.133-.367.319-.479.559v4.303h-1.059v-5.812h.945Z"/>
    <path class="st0" d="M162.838,168.037c0-.859.232-1.567.697-2.124.466-.557,1.098-.835,1.896-.835.805,0,1.442.277,1.909.832.468.556.701,1.265.701,2.127v.118c0,.867-.232,1.576-.698,2.127-.466.552-1.1.827-1.901.827s-1.437-.276-1.904-.829c-.467-.554-.7-1.262-.7-2.125v-.118ZM163.896,168.153c0,.615.13,1.123.39,1.524.26.4.646.601,1.157.601.505,0,.887-.2,1.149-.601.262-.401.393-.909.393-1.524v-.117c0-.608-.132-1.114-.396-1.519-.263-.404-.648-.606-1.157-.606-.505,0-.887.202-1.146.606s-.39.91-.39,1.519v.117Z"/>
    <path class="st0" d="M172.086,166.12l-.542-.032c-.279,0-.515.066-.706.198-.191.133-.34.319-.443.559v4.152h-1.059v-5.812h.945l.103.849c.165-.301.368-.535.609-.704.242-.168.521-.252.835-.252.079,0,.154.006.227.019.071.013.13.026.177.04l-.146.983Z"/>
    <path class="st0" d="M175.519,171.11c-.81,0-1.453-.27-1.931-.808-.479-.539-.718-1.238-.718-2.098v-.236c0-.827.247-1.516.739-2.065s1.075-.824,1.748-.824c.784,0,1.377.236,1.778.709.4.473.602,1.103.602,1.891v.66h-3.771l-.016.027c.011.557.152,1.015.424,1.374.272.358.654.538,1.145.538.358,0,.672-.051.942-.153.271-.102.504-.242.701-.422l.413.688c-.207.205-.481.377-.821.514s-.752.205-1.235.205ZM175.357,165.91c-.354,0-.657.149-.907.447-.251.298-.405.672-.463,1.121l.012.027h2.68v-.14c0-.414-.111-.76-.333-1.038s-.552-.418-.988-.418Z"/>
    <path class="st0" d="M122.141,172.072v-.537h56.014v.537h-56.014Z"/>
  </g>
  <g>
    <path class="st1" d="M298.24,203.31c-.491,0-.889.398-.889.889v5.333c0,.49-.398.889-.889.889h-8.889c-.49,0-.889-.399-.889-.889v-8.889c0-.49.398-.889.889-.889h5.333c.491,0,.889-.398.889-.889s-.398-.889-.889-.889h-5.333c-1.47,0-2.667,1.196-2.667,2.667v8.889c0,1.47,1.196,2.667,2.667,2.667h8.889c1.47,0,2.667-1.196,2.667-2.667v-5.333c0-.491-.398-.889-.889-.889Z"/>
    <path class="st1" d="M300.838,196.748c-.09-.218-.263-.391-.481-.481-.109-.045-.224-.069-.34-.069h-4.444c-.491,0-.889.398-.889.889s.398.889.889.889h2.299l-6.483,6.483c-.347.347-.347.91,0,1.257.174.174.401.26.628.26s.455-.087.628-.26l6.483-6.483v2.299c0,.491.398.889.889.889s.889-.398.889-.889v-4.444c0-.116-.024-.231-.068-.339Z"/>
  </g>
  <g>
    <path class="st1" d="M50.547,109.956v-2.4c0-2.205-1.795-4-4-4s-4,1.795-4,4v2.4c-1.323,0-2.4,1.077-2.4,2.4v4.8c0,1.323,1.077,2.4,2.4,2.4h8c1.323,0,2.4-1.077,2.4-2.4v-4.8c0-1.323-1.077-2.4-2.4-2.4ZM44.147,107.556c0-1.323,1.077-2.4,2.4-2.4s2.4,1.077,2.4,2.4v2.4h-4.8v-2.4ZM51.347,117.156c0,.441-.359.8-.8.8h-8c-.441,0-.8-.359-.8-.8v-4.8c0-.441.359-.8.8-.8h8c.441,0,.8.359.8.8v4.8Z"/>
    <circle class="st1" cx="46.547" cy="114.756" r="1.6"/>
  </g>
  <g>
    <path class="st1" d="M51.991,197.926h-10.889c-.858,0-1.556.698-1.556,1.556v10.889c0,.858.698,1.556,1.556,1.556h10.889c.858,0,1.556-.698,1.556-1.556v-10.889c0-.858-.698-1.556-1.556-1.556ZM51.991,201.037h-7.778v-1.556h7.778v1.556ZM42.658,199.482v1.556h-1.556v-1.556h1.556ZM41.102,210.371v-7.778h10.889v7.778h-10.889Z"/>
    <path class="st1" d="M47.553,205.154l-1.783,1.783-.617-.617c-.304-.304-.796-.304-1.1,0s-.304.796,0,1.1l1.167,1.167c.152.152.351.228.55.228s.398-.076.55-.228l2.333-2.333c.304-.304.304-.796,0-1.1s-.796-.304-1.1,0Z"/>
  </g>
</svg>